<svg width="180" height="180" viewBox="0 0 180 180" fill="none" xmlns="http://www.w3.org/2000/svg">
<g clip-path="url(#clip0_40_13)">
<path d="M12.829 0.456619C6.77444 1.92935 1.63625 7.23117 0.35989 13.3512C-0.163746 15.8057 -0.163746 164.191 0.35989 166.646C1.66898 172.929 7.10171 178.362 13.3526 179.638C14.5635 179.9 37.1781 179.998 90.0981 179.998C172.636 179.998 167.204 180.129 171.196 178.002C175.222 175.842 178.691 171.195 179.64 166.646C180.164 164.191 180.164 15.8057 179.64 13.3512C178.691 8.80208 175.222 4.1548 171.196 1.99481C167.204 -0.132462 172.702 -0.0015564 89.8363 0.0311737C29.9453 0.0639038 14.2035 0.129349 12.829 0.456619ZM167.629 3.63116C171.36 4.8748 174.109 7.36208 175.876 11.093L176.891 13.253V89.9984V166.744L175.844 168.937C174.404 172.013 172.276 174.173 169.233 175.678L166.778 176.889H90.0326H13.2544L11.0944 175.875C7.36353 174.108 4.87625 171.358 3.63262 167.628L2.94535 165.598L3.0108 89.4421L3.10898 13.253L4.12353 11.093C5.8908 7.39481 8.60716 4.90753 12.3053 3.63116C14.2363 2.97662 14.6617 2.97662 89.9344 2.94389C165.6 2.94389 165.633 2.94389 167.629 3.63116Z" fill="white"/>
<path d="M60.1527 22.1547C59.8909 22.482 53.5418 38.7147 46.0473 58.1875C35.0509 86.8238 32.4655 93.7948 32.76 94.2857C33.0545 94.8748 33.48 94.9075 41.2691 94.842L49.4836 94.7438L54.7855 81.4893L60.0873 68.2347L66.4691 68.1366L72.8509 68.0711L78.0546 81.0638C80.9018 88.2311 83.3564 94.2857 83.5527 94.5148C83.7818 94.8093 85.7127 94.9075 91.8982 94.842C98.9018 94.7438 99.9491 94.6784 100.244 94.2202C100.505 93.7948 97.6582 86.0384 87.4146 59.3657C73.1127 22.122 73.1455 22.2202 72.5564 21.8602C72.3273 21.7293 69.5782 21.5984 66.4036 21.5984C61.3309 21.5984 60.5782 21.6638 60.1527 22.1547ZM71.6073 26.2456C71.9673 27.1947 77.7927 42.3802 84.5673 59.9875C91.3418 77.562 96.8727 92.0602 96.8727 92.1257C96.8727 92.2238 94.3855 92.2893 91.3418 92.2893C87.2509 92.2893 85.7127 92.1911 85.5164 91.8966C85.3855 91.6675 82.8982 85.5802 79.9855 78.3802L74.7491 65.2893L66.6655 65.1911L58.6146 65.1257L58.1236 65.8457C57.7636 66.4347 52.9855 78.1838 47.5527 91.8638C47.3236 92.4529 36.3273 92.4857 36.3273 91.8966C36.3273 91.6675 42.12 76.4166 49.1891 58.0238L62.0182 24.5438H66.5018H70.9855L71.6073 26.2456Z" fill="white"/>
<path d="M65.52 34.7548C65.0945 35.3111 57.9273 54.9802 57.9273 55.6348C57.9273 56.8457 58.5164 56.9438 66.6655 56.9438C74.1273 56.9438 74.6182 56.9111 74.9455 56.322C75.2073 55.8311 74.52 53.6057 71.6073 45.5875C69.6109 40.0566 67.7455 35.2457 67.4836 34.9184C66.8946 34.2638 66.0109 34.1984 65.52 34.7548ZM69.0546 46.962C70.3636 50.562 71.5091 53.7038 71.5746 53.9002C71.7055 54.2275 70.5927 54.3257 66.6327 54.3257C63.0655 54.3257 61.5273 54.2275 61.5273 53.9657C61.5273 53.7693 62.4764 50.9875 63.6218 47.8129C66.3055 40.4493 66.4364 40.122 66.5673 40.2857C66.6327 40.3511 67.7455 43.362 69.0546 46.962Z" fill="white"/>
<path d="M114.807 34.853C109.898 35.6384 104.531 37.7002 100.309 40.4166C97.3964 42.2821 97.5273 41.8566 97.5273 48.4348C97.5273 53.3111 97.6254 54.3584 98.0509 54.7839C98.8364 55.5693 99.1964 55.4384 101.651 53.5075C109.833 46.9293 120.535 46.3402 129.011 51.9693L130.255 52.7875V55.8312C130.255 57.533 130.189 58.9075 130.091 58.9075C130.025 58.9075 128.945 58.253 127.702 57.4675C124.56 55.4057 121.942 54.5875 117.982 54.3912C113.956 54.1948 110.585 55.013 107.313 56.9439C96.2509 63.4893 94.3527 78.3475 103.418 87.3802C110.324 94.2857 120.535 95.1693 128.455 89.5075L130.091 88.3621L130.189 90.3911C130.255 91.5039 130.451 92.6166 130.647 92.8457C130.909 93.173 132.48 93.2711 136.996 93.2711C142.822 93.2711 142.985 93.2384 143.476 92.5511C143.935 91.8966 144 88.9511 144 67.2857V42.773L142.887 41.7584C140.4 39.4348 134.902 36.8166 129.698 35.4748C125.64 34.4275 119.062 34.133 114.807 34.853ZM126.884 37.7984C131.302 38.6493 135.753 40.3839 139.647 42.8384L141.055 43.6893V66.9911V90.3257H136.964H132.873V87.1184C132.873 82.3075 132.251 82.013 128.815 85.3839C125.313 88.7548 121.647 90.3257 117.164 90.3257C109.505 90.3257 102.731 84.9584 100.964 77.5293C99.6218 71.8348 101.193 66.3366 105.349 62.1475C108.753 58.7439 112.451 57.173 117.131 57.2057C121.942 57.2057 126.655 59.2675 129.436 62.6057C130.876 64.3402 131.367 64.6021 132.251 64.1439C132.84 63.8166 132.873 63.3911 132.873 57.4675V51.1511L131.433 50.1366C129.404 48.6639 124.953 46.6021 122.4 45.9148C119.127 45.0639 113.138 45.1293 109.865 46.0784C107.215 46.8312 103.844 48.4021 101.716 49.8748L100.473 50.693V47.1912V43.6566L103.025 42.1511C109.964 37.9621 119.095 36.3257 126.884 37.7984Z" fill="white"/>
<path d="M114.971 63.4893C108.916 64.7657 105.153 71.5402 107.313 77.2675C109.865 84.0093 118.047 86.2675 123.676 81.8166C124.822 80.9002 125.607 79.8857 126.393 78.3148C128.52 73.962 127.604 69.2166 124.004 65.9766C121.615 63.8493 118.047 62.8348 114.971 63.4893ZM120.109 66.7948C122.073 67.6784 122.989 68.562 123.905 70.5257C125.247 73.3402 124.822 76.3511 122.825 78.5766C121.156 80.4093 119.422 81.2275 117.196 81.2275C112.713 81.2275 109.636 78.1511 109.636 73.7657C109.636 71.3111 110.455 69.5111 112.189 68.0384C114.578 66.042 117.458 65.5839 120.109 66.7948Z" fill="white"/>
<path d="M33.8073 102.795C27.5891 103.187 22.68 103.973 15.5455 105.74C13.2218 106.329 11.4545 106.951 11.2255 107.246C10.8982 107.671 10.8 111.631 10.8 124.395C10.8 144.424 10.4073 143.082 15.4145 140.758C19.3091 138.926 25.4291 136.962 30.1418 135.98C45.8182 132.806 62.0509 135.064 76.2545 142.395C81.4582 145.078 81.4909 145.078 81.4909 146.682C81.4909 147.467 81.8182 148.744 82.1782 149.562C85.2218 156.304 94.7782 156.304 97.8218 149.562C98.1818 148.744 98.5091 147.467 98.5091 146.682C98.5091 145.078 98.5418 145.078 103.745 142.395C117.982 135.031 133.985 132.838 149.825 136.013C154.538 136.929 160.658 138.926 164.585 140.758C167.662 142.198 167.956 142.231 168.676 141.511C169.135 141.053 169.2 139.057 169.2 124.395C169.2 111.631 169.102 107.671 168.807 107.246C168.545 106.951 166.778 106.297 164.455 105.74C147.96 101.617 131.564 101.551 115.298 105.544C107.673 107.442 99.0327 110.682 92.7164 114.053L90 115.493L87.3164 114.053C75.3709 107.704 60.8073 103.711 46.3091 102.762C40.5818 102.402 39.7309 102.402 33.8073 102.795ZM52.9855 106.198C64.2436 107.737 74.4218 110.846 84.3709 115.787L88.6909 117.947V120.795V123.642L84.8291 121.907C75.96 117.882 65.0618 114.937 55.7673 114.053C53.8364 113.857 53.3455 113.922 52.92 114.38C51.4473 115.82 52.6909 116.638 57.1091 117.129C66.2727 118.144 76.0582 120.958 84.6982 125.049L88.6909 126.947V130.547C88.6909 132.544 88.6255 134.18 88.5273 134.18C88.4291 134.18 86.8255 133.297 84.96 132.217C76.2218 127.177 65.2909 123.38 55.3418 121.907C42.4473 119.977 27.6873 121.187 16.1345 125.147L13.7455 125.966V117.522V109.078L17.28 108.227C21.5345 107.18 27.7527 106.166 32.2364 105.74C36.6873 105.315 48.4364 105.577 52.9855 106.198ZM147.109 105.707C152.116 106.133 158.171 107.115 162.72 108.227L166.255 109.078V117.522V125.933L163.898 125.115C162.589 124.689 159.742 123.904 157.582 123.38C139.025 118.864 119.356 120.729 102.142 128.617C98.6727 130.22 93.8618 132.773 92.4546 133.722C92.0946 133.984 91.7018 134.18 91.5709 134.18C91.4073 134.18 91.3091 132.544 91.3091 130.547V126.947L95.3345 125.017C103.844 120.991 113.727 118.144 122.891 117.129C127.309 116.638 128.553 115.82 127.08 114.38C126.655 113.922 126.164 113.857 124.233 114.053C114.971 114.937 104.007 117.915 95.1382 121.907L91.2764 123.642L91.3745 120.827L91.4727 117.98L94.0909 116.606C110.062 108.195 129.436 104.202 147.109 105.707ZM49.0909 124.035C56.4218 124.689 64.6364 126.457 70.8873 128.78C75.4691 130.482 82.0473 133.689 86.1709 136.242C88.1018 137.453 89.8364 138.435 90.0327 138.435C90.2291 138.435 91.9636 137.453 93.8618 136.242C108.065 127.34 125.967 122.824 142.462 123.969C149.989 124.493 159.938 126.489 165.371 128.584L166.255 128.944V133.526C166.255 136.275 166.124 138.107 165.927 138.107C165.764 138.107 164.782 137.747 163.767 137.289C158.989 135.195 151.102 133.1 144.327 132.184C140.302 131.627 131.105 131.726 126.458 132.347C121.615 132.969 114.873 134.638 110.455 136.307C106.527 137.747 100.015 140.955 97.5273 142.624L95.76 143.835L95.7273 145.831C95.6945 148.384 94.6473 150.151 92.5527 151.166C90.72 152.049 89.28 152.049 87.4473 151.166C85.3855 150.151 84.3055 148.384 84.2727 145.897C84.24 143.54 84.2073 143.507 79.56 140.922C64.8327 132.675 47.0618 129.827 30.2727 133.067C26.5418 133.787 21.3382 135.326 17.5091 136.831C15.6764 137.518 14.1055 138.107 13.9745 138.107C13.8436 138.107 13.7455 136.046 13.7455 133.558V128.977L15.5455 128.322C18.2945 127.307 24.2836 125.769 28.4727 125.017C35.4764 123.806 42.4473 123.478 49.0909 124.035Z" fill="white"/>
</g>
<defs>
<clipPath id="clip0_40_13">
<rect width="180" height="180" fill="white"/>
</clipPath>
</defs>
</svg>
