<svg width="40" height="32" viewBox="0 0 40 32" fill="none" xmlns="http://www.w3.org/2000/svg">
<path d="M3.33337 4H13.3334C15.1015 4 16.7972 4.5619 18.0474 5.5621C19.2977 6.56229 20 7.91885 20 9.33333V28C20 26.9391 19.4733 25.9217 18.5356 25.1716C17.5979 24.4214 16.3261 24 15 24H3.33337V4Z" stroke="black" stroke-width="2" stroke-linecap="round" stroke-linejoin="round"/>
<path d="M36.6667 4H26.6667C24.8986 4 23.2029 4.5619 21.9526 5.5621C20.7024 6.56229 20 7.91885 20 9.33333V28C20 26.9391 20.5268 25.9217 21.4645 25.1716C22.4021 24.4214 23.6739 24 25 24H36.6667V4Z" stroke="black" stroke-width="2" stroke-linecap="round" stroke-linejoin="round"/>
</svg>
