<svg width="22" height="22" viewBox="0 0 22 22" fill="none" xmlns="http://www.w3.org/2000/svg">
<g clip-path="url(#clip0_85_192)">
<path d="M16.4451 16.4451C14.8781 17.6395 12.9701 18.3012 11.0001 18.3334C4.58341 18.3334 0.916748 11.0001 0.916748 11.0001C2.05698 8.87517 3.63846 7.01866 5.55508 5.5551M9.07508 3.88677C9.70605 3.73908 10.3521 3.66525 11.0001 3.66677C17.4167 3.66677 21.0834 11.0001 21.0834 11.0001C20.527 12.0411 19.8634 13.0211 19.1034 13.9243M12.9434 12.9434C12.6917 13.2136 12.3881 13.4303 12.0507 13.5806C11.7134 13.7309 11.3492 13.8118 10.98 13.8183C10.6108 13.8248 10.244 13.7569 9.90156 13.6186C9.55913 13.4802 9.24808 13.2744 8.98694 13.0132C8.7258 12.7521 8.51994 12.4411 8.38163 12.0986C8.24332 11.7562 8.1754 11.3894 8.18191 11.0202C8.18843 10.6509 8.26925 10.2868 8.41955 9.94946C8.56985 9.61213 8.78656 9.30853 9.05675 9.05677" stroke="black" stroke-width="2" stroke-linecap="round" stroke-linejoin="round"/>
<path d="M0.916748 0.916748L21.0834 21.0834" stroke="black" stroke-width="2" stroke-linecap="round" stroke-linejoin="round"/>
</g>
<defs>
<clipPath id="clip0_85_192">
<rect width="22" height="22" fill="white"/>
</clipPath>
</defs>
</svg>
