<svg width="54" height="64" viewBox="0 0 54 64" fill="#fff" xmlns="http://www.w3.org/2000/svg">
    <path
        d="M41.8253 40H11.7112C11.2675 40 10.842 40.2107 10.5282 40.5858C10.2145 40.9609 10.0382 41.4696 10.0382 42C10.0382 42.5304 10.2145 43.0391 10.5282 43.4142C10.842 43.7893 11.2675 44 11.7112 44H41.8253C42.269 44 42.6945 43.7893 43.0083 43.4142C43.322 43.0391 43.4983 42.5304 43.4983 42C43.4983 41.4696 43.322 40.9609 43.0083 40.5858C42.6945 40.2107 42.269 40 41.8253 40ZM27.6048 36C28.2703 36 28.9086 35.6839 29.3793 35.1213C29.8499 34.5587 30.1143 33.7956 30.1143 33C30.1143 32.2044 29.8499 31.4413 29.3793 30.8787C28.9086 30.3161 28.2703 30 27.6048 30C26.9392 30 26.3009 30.3161 25.8303 30.8787C25.3597 31.4413 25.0953 32.2044 25.0953 33C25.0953 33.7956 25.3597 34.5587 25.8303 35.1213C26.3009 35.6839 26.9392 36 27.6048 36ZM20.9127 28C21.2423 28 21.5686 27.9224 21.8731 27.7716C22.1776 27.6209 22.4542 27.3999 22.6872 27.1213C22.9203 26.8427 23.1051 26.512 23.2312 26.1481C23.3573 25.7841 23.4223 25.394 23.4223 25C23.4223 24.606 23.3573 24.2159 23.2312 23.8519C23.1051 23.488 22.9203 23.1573 22.6872 22.8787C22.4542 22.6001 22.1776 22.3791 21.8731 22.2284C21.5686 22.0776 21.2423 22 20.9127 22C20.2472 22 19.6089 22.3161 19.1383 22.8787C18.6676 23.4413 18.4032 24.2044 18.4032 25C18.4032 25.7956 18.6676 26.5587 19.1383 27.1213C19.6089 27.6839 20.2472 28 20.9127 28ZM17.5667 36C18.2323 36 18.8706 35.6839 19.3412 35.1213C19.8119 34.5587 20.0762 33.7956 20.0762 33C20.0762 32.2044 19.8119 31.4413 19.3412 30.8787C18.8706 30.3161 18.2323 30 17.5667 30C16.9012 30 16.2629 30.3161 15.7923 30.8787C15.3216 31.4413 15.0572 32.2044 15.0572 33C15.0572 33.7956 15.3216 34.5587 15.7923 35.1213C16.2629 35.6839 16.9012 36 17.5667 36ZM13.3842 25C13.3842 24.2044 13.1198 23.4413 12.6492 22.8787C12.1786 22.3161 11.5403 22 10.8747 22C10.2092 22 9.57086 22.3161 9.10024 22.8787C8.62961 23.4413 8.36522 24.2044 8.36522 25C8.36522 25.7956 8.62961 26.5587 9.10024 27.1213C9.57086 27.6839 10.2092 28 10.8747 28C11.5403 28 12.1786 27.6839 12.6492 27.1213C13.1198 26.5587 13.3842 25.7956 13.3842 25ZM46.8443 34.6V45C46.8399 45.794 46.5741 46.5541 46.1044 47.1155C45.6348 47.677 44.999 47.9948 44.3348 48H9.20172C8.53751 47.9948 7.90175 47.677 7.43208 47.1155C6.9624 46.5541 6.6966 45.794 6.69221 45V19C6.6966 18.206 6.9624 17.4459 7.43208 16.8845C7.90175 16.323 8.53751 16.0052 9.20172 16H30.1143V12H9.20172C8.43227 11.9979 7.67005 12.1775 6.95883 12.5285C6.24761 12.8796 5.6014 13.3951 5.05731 14.0455C4.51323 14.696 4.08198 15.4685 3.78834 16.3187C3.49469 17.169 3.34444 18.0802 3.34621 19V45C3.34444 45.9198 3.49469 46.831 3.78834 47.6813C4.08198 48.5315 4.51323 49.304 5.05731 49.9545C5.6014 50.6049 6.24761 51.1204 6.95883 51.4715C7.67005 51.8225 8.43227 52.0021 9.20172 52H44.3348C45.1041 52.0016 45.8662 51.8216 46.5772 51.4704C47.2882 51.1192 47.9342 50.6036 48.4782 49.9533C49.0222 49.3029 49.4535 48.5306 49.7473 47.6807C50.0411 46.8307 50.1916 45.9197 50.1903 45V31.76C49.2449 32.9644 48.1072 33.9301 46.8443 34.6ZM10.0382 42C10.0382 42.5304 10.2145 43.0391 10.5282 43.4142C10.842 43.7893 11.2675 44 11.7112 44H41.8253C42.269 44 42.6945 43.7893 43.0083 43.4142C43.322 43.0391 43.4983 42.5304 43.4983 42C43.4983 41.4696 43.322 40.9609 43.0083 40.5858C42.6945 40.2107 42.269 40 41.8253 40H11.7112C11.2675 40 10.842 40.2107 10.5282 40.5858C10.2145 40.9609 10.0382 41.4696 10.0382 42ZM30.1143 33C30.1143 32.2044 29.8499 31.4413 29.3793 30.8787C28.9086 30.3161 28.2703 30 27.6048 30C26.9392 30 26.3009 30.3161 25.8303 30.8787C25.3597 31.4413 25.0953 32.2044 25.0953 33C25.0953 33.7956 25.3597 34.5587 25.8303 35.1213C26.3009 35.6839 26.9392 36 27.6048 36C28.2703 36 28.9086 35.6839 29.3793 35.1213C29.8499 34.5587 30.1143 33.7956 30.1143 33ZM23.4223 25C23.4223 24.606 23.3573 24.2159 23.2312 23.8519C23.1051 23.488 22.9203 23.1573 22.6872 22.8787C22.4542 22.6001 22.1776 22.3791 21.8731 22.2284C21.5686 22.0776 21.2423 22 20.9127 22C20.5832 22 20.2569 22.0776 19.9524 22.2284C19.6479 22.3791 19.3713 22.6001 19.1383 22.8787C18.9052 23.1573 18.7204 23.488 18.5943 23.8519C18.4682 24.2159 18.4032 24.606 18.4032 25C18.4032 25.7956 18.6676 26.5587 19.1383 27.1213C19.6089 27.6839 20.2472 28 20.9127 28C21.5783 28 22.2166 27.6839 22.6872 27.1213C23.1579 26.5587 23.4223 25.7956 23.4223 25ZM15.0572 33C15.0572 33.7956 15.3216 34.5587 15.7923 35.1213C16.2629 35.6839 16.9012 36 17.5667 36C18.2323 36 18.8706 35.6839 19.3412 35.1213C19.8119 34.5587 20.0762 33.7956 20.0762 33C20.0762 32.2044 19.8119 31.4413 19.3412 30.8787C18.8706 30.3161 18.2323 30 17.5667 30C16.9012 30 16.2629 30.3161 15.7923 30.8787C15.3216 31.4413 15.0572 32.2044 15.0572 33ZM13.3842 25C13.3842 24.2044 13.1198 23.4413 12.6492 22.8787C12.1786 22.3161 11.5403 22 10.8747 22C10.2092 22 9.57086 22.3161 9.10024 22.8787C8.62961 23.4413 8.36522 24.2044 8.36522 25C8.36522 25.7956 8.62961 26.5587 9.10024 27.1213C9.57086 27.6839 10.2092 28 10.8747 28C11.5403 28 12.1786 27.6839 12.6492 27.1213C13.1198 26.5587 13.3842 25.7956 13.3842 25ZM27.6048 30C26.9392 30 26.3009 30.3161 25.8303 30.8787C25.3597 31.4413 25.0953 32.2044 25.0953 33C25.0953 33.7956 25.3597 34.5587 25.8303 35.1213C26.3009 35.6839 26.9392 36 27.6048 36C28.2703 36 28.9086 35.6839 29.3793 35.1213C29.8499 34.5587 30.1143 33.7956 30.1143 33C30.1143 32.2044 29.8499 31.4413 29.3793 30.8787C28.9086 30.3161 28.2703 30 27.6048 30ZM17.5667 30C16.9012 30 16.2629 30.3161 15.7923 30.8787C15.3216 31.4413 15.0572 32.2044 15.0572 33C15.0572 33.7956 15.3216 34.5587 15.7923 35.1213C16.2629 35.6839 16.9012 36 17.5667 36C18.2323 36 18.8706 35.6839 19.3412 35.1213C19.8119 34.5587 20.0762 33.7956 20.0762 33C20.0762 32.2044 19.8119 31.4413 19.3412 30.8787C18.8706 30.3161 18.2323 30 17.5667 30ZM20.9127 22C20.5832 22 20.2569 22.0776 19.9524 22.2284C19.6479 22.3791 19.3713 22.6001 19.1383 22.8787C18.9052 23.1573 18.7204 23.488 18.5943 23.8519C18.4682 24.2159 18.4032 24.606 18.4032 25C18.4032 25.394 18.4682 25.7841 18.5943 26.1481C18.7204 26.512 18.9052 26.8427 19.1383 27.1213C19.3713 27.3999 19.6479 27.6209 19.9524 27.7716C20.2569 27.9224 20.5832 28 20.9127 28C21.5783 28 22.2166 27.6839 22.6872 27.1213C23.1579 26.5587 23.4223 25.7956 23.4223 25C23.4223 24.2044 23.1579 23.4413 22.6872 22.8787C22.2166 22.3161 21.5783 22 20.9127 22ZM10.8747 22C10.5452 22 10.2188 22.0776 9.91438 22.2284C9.60991 22.3791 9.33326 22.6001 9.10024 22.8787C8.86721 23.1573 8.68236 23.488 8.55624 23.8519C8.43013 24.2159 8.36522 24.606 8.36522 25C8.36522 25.394 8.43013 25.7841 8.55624 26.1481C8.68236 26.512 8.86721 26.8427 9.10024 27.1213C9.33326 27.3999 9.60991 27.6209 9.91438 27.7716C10.2188 27.9224 10.5452 28 10.8747 28C11.5403 28 12.1786 27.6839 12.6492 27.1213C13.1198 26.5587 13.3842 25.7956 13.3842 25C13.3842 24.2044 13.1198 23.4413 12.6492 22.8787C12.1786 22.3161 11.5403 22 10.8747 22ZM41.8253 40H11.7112C11.2675 40 10.842 40.2107 10.5282 40.5858C10.2145 40.9609 10.0382 41.4696 10.0382 42C10.0382 42.5304 10.2145 43.0391 10.5282 43.4142C10.842 43.7893 11.2675 44 11.7112 44H41.8253C42.269 44 42.6945 43.7893 43.0083 43.4142C43.322 43.0391 43.4983 42.5304 43.4983 42C43.4983 41.4696 43.322 40.9609 43.0083 40.5858C42.6945 40.2107 42.269 40 41.8253 40ZM45.1713 4H38.4793C37.1482 4 35.8716 4.63214 34.9303 5.75736C33.9891 6.88258 33.4603 8.4087 33.4603 10V22C33.4603 24.6522 34.3416 27.1957 35.9103 29.0711C37.4791 30.9464 39.6068 32 41.8253 32C44.0438 32 46.1715 30.9464 47.7403 29.0711C49.309 27.1957 50.1903 24.6522 50.1903 22V10C50.1903 8.4087 49.6615 6.88258 48.7203 5.75736C47.779 4.63214 46.5024 4 45.1713 4ZM46.8443 22C46.8443 22.7879 46.7145 23.5681 46.4623 24.2961C46.21 25.0241 45.8403 25.6855 45.3743 26.2426C44.9082 26.7998 44.3549 27.2417 43.746 27.5433C43.1371 27.8448 42.4844 28 41.8253 28C41.1662 28 40.5135 27.8448 39.9046 27.5433C39.2957 27.2417 38.7424 26.7998 38.2763 26.2426C37.8103 25.6855 37.4406 25.0241 37.1883 24.2961C36.9361 23.5681 36.8063 22.7879 36.8063 22V10C36.8063 9.46957 36.9825 8.96086 37.2963 8.58579C37.61 8.21071 38.0356 8 38.4793 8H40.1523V14C40.1523 14.5304 40.3286 15.0391 40.6423 15.4142C40.9561 15.7893 41.3816 16 41.8253 16C42.269 16 42.6945 15.7893 43.0083 15.4142C43.322 15.0391 43.4983 14.5304 43.4983 14V8H45.1713C45.615 8 46.0405 8.21071 46.3543 8.58579C46.668 8.96086 46.8443 9.46957 46.8443 10V22Z"
        fill="#fff" />
</svg>