<svg width="134" height="44" viewBox="0 0 134 44" fill="none" xmlns="http://www.w3.org/2000/svg">
<path d="M21.9274 26.384C21.8847 26.448 21.8314 26.512 21.7674 26.576C21.7247 26.64 21.682 26.6933 21.6394 26.736C21.554 26.8213 21.4794 26.9067 21.4154 26.992C21.3514 27.0773 21.2767 27.1627 21.1914 27.248C21.106 27.3333 21.01 27.4187 20.9034 27.504C20.818 27.5893 20.722 27.6853 20.6154 27.792C20.5727 27.8347 20.53 27.8667 20.4874 27.888C20.4874 27.9093 20.466 27.9307 20.4234 27.952C20.402 27.9733 20.402 27.9733 20.4234 27.952C20.338 28.08 20.2847 28.1867 20.2634 28.272C20.242 28.2933 20.2314 28.3147 20.2314 28.336C20.1674 28.4853 20.1034 28.6347 20.0394 28.784C19.9967 28.9333 19.9434 29.0827 19.8794 29.232C19.8794 29.2747 19.8687 29.3067 19.8474 29.328C19.826 29.4347 19.7834 29.552 19.7194 29.68C19.6767 29.7867 19.634 29.8933 19.5914 30L19.4954 30.192C19.4314 30.32 19.3567 30.4373 19.2714 30.544C19.2074 30.672 19.122 30.768 19.0154 30.832C18.994 31.0667 19.0154 31.3653 19.0794 31.728C19.1647 32.0907 19.2287 32.4427 19.2714 32.784C19.3354 33.1253 19.346 33.4027 19.3034 33.616C19.2607 33.8293 19.122 33.9147 18.8874 33.872C18.5674 33.808 18.418 33.584 18.4394 33.2C18.4607 32.8373 18.5247 32.4107 18.6314 31.92C18.7594 31.4507 18.802 31.056 18.7594 30.736C18.7594 30.736 18.738 30.7147 18.6954 30.672C18.6527 30.6293 18.6314 30.608 18.6314 30.608C18.6314 30.5867 18.6207 30.576 18.5994 30.576C18.5994 30.576 18.5994 30.5653 18.5994 30.544L18.5034 30.384C18.4607 30.2773 18.418 30.1813 18.3754 30.096C18.3327 30.0107 18.2794 29.9253 18.2154 29.84C18.194 29.84 18.1834 29.8293 18.1834 29.808L17.9914 29.904H17.9594C17.938 30.2027 17.9167 30.4907 17.8954 30.768C17.8954 31.0667 17.8847 31.3653 17.8634 31.664C17.842 31.856 17.8314 32.1227 17.8314 32.464C17.8314 32.8267 17.8314 33.1147 17.8314 33.328C17.8314 33.5627 17.7994 33.584 17.7354 33.392C17.6714 33.1573 17.6287 32.9227 17.6074 32.688C17.6074 32.4747 17.6074 32.2507 17.6074 32.016C17.5434 32.016 17.5114 32.0053 17.5114 31.984C17.49 31.8347 17.49 31.664 17.5114 31.472C17.554 31.3013 17.586 31.12 17.6074 30.928V30.768C17.6074 30.7467 17.5967 30.7573 17.5754 30.8C17.554 30.8427 17.5327 30.864 17.5114 30.864C17.4687 30.8213 17.4367 30.7787 17.4154 30.736C17.4154 30.6933 17.4047 30.6613 17.3834 30.64C17.362 30.6187 17.3407 30.5547 17.3194 30.448C17.298 30.3413 17.266 30.2347 17.2234 30.128C17.0954 30.2133 17.042 30.3627 17.0634 30.576C17.0847 30.8107 17.1274 31.056 17.1914 31.312C17.2554 31.5893 17.2767 31.824 17.2554 32.016C17.2554 32.0373 17.234 32.048 17.1914 32.048C17.17 32.0693 17.1487 32.1013 17.1274 32.144C17.106 32.1653 17.0847 32.208 17.0634 32.272C17.042 32.336 17.0207 32.3467 16.9994 32.304C16.978 32.0053 16.9674 31.7067 16.9674 31.408C16.9674 31.1093 16.9567 30.8213 16.9354 30.544C16.8714 30.7787 16.8074 31.0347 16.7434 31.312C16.7007 31.5893 16.626 31.8453 16.5194 32.08C16.498 32.144 16.466 32.208 16.4234 32.272C16.3807 32.3573 16.3274 32.4107 16.2634 32.432C16.1567 32.496 16.0607 32.464 15.9754 32.336C15.9327 32.2933 15.89 32.24 15.8474 32.176C15.826 32.112 15.8047 32.0693 15.7834 32.048C15.634 31.856 15.4634 31.664 15.2714 31.472C15.1007 31.28 14.9514 31.0773 14.8234 30.864C14.8234 30.8427 14.8127 30.8213 14.7914 30.8C14.7914 30.8 14.7914 30.7893 14.7914 30.768C14.77 30.768 14.7594 30.7573 14.7594 30.736C14.738 30.6933 14.7167 30.64 14.6954 30.576C14.674 30.5333 14.6527 30.4907 14.6314 30.448C14.5887 30.5547 14.5674 30.672 14.5674 30.8C14.5887 30.9493 14.5674 31.088 14.5034 31.216C14.482 31.2373 14.4607 31.2053 14.4394 31.12C14.418 31.056 14.3967 31.0027 14.3754 30.96C14.3327 30.832 14.3114 30.7253 14.3114 30.64C14.2687 30.7253 14.2154 30.8107 14.1514 30.896C14.1087 31.0027 14.0447 31.0987 13.9594 31.184C13.81 31.3333 13.714 31.536 13.6714 31.792C13.6287 32.0693 13.618 32.3573 13.6394 32.656C13.5967 32.656 13.5434 32.688 13.4794 32.752C13.4367 32.816 13.394 32.88 13.3514 32.944C13.3087 33.008 13.2767 33.0933 13.2554 33.2C13.2554 32.7733 13.2554 32.3787 13.2554 32.016C13.2767 31.6533 13.2767 31.376 13.2554 31.184C13.1487 31.0987 13.042 30.992 12.9354 30.864C12.85 30.7573 12.7754 30.672 12.7114 30.608C12.69 30.5653 12.6474 30.512 12.5834 30.448C12.562 30.448 12.53 30.4267 12.4874 30.384C12.402 30.3413 12.3487 30.3733 12.3274 30.48C12.306 30.672 12.2954 30.864 12.2954 31.056C12.2954 31.2693 12.274 31.472 12.2314 31.664C12.21 31.7067 12.1887 31.6747 12.1674 31.568C12.1674 31.4613 12.1567 31.3867 12.1354 31.344L12.0394 30.32H12.0074C9.87404 30.2773 8.02871 29.9253 6.47138 29.264C4.91404 28.5813 3.71938 27.5787 2.88738 26.256C2.75938 26.0853 2.64204 25.904 2.53538 25.712C2.45004 25.4987 2.36471 25.2853 2.27938 25.072C2.21538 24.944 2.16204 24.816 2.11938 24.688C2.07671 24.56 2.03404 24.432 1.99138 24.304C1.90604 24.176 1.83138 23.952 1.76738 23.632C1.66071 23.2907 1.58604 22.864 1.54338 22.352C1.50071 21.84 1.47938 21.328 1.47938 20.816C1.47938 20.2827 1.47938 19.856 1.47938 19.536C1.47938 19.344 1.47938 19.152 1.47938 18.96C1.47938 18.768 1.49004 18.576 1.51138 18.384V17.104C1.51138 16.6773 1.51138 16.24 1.51138 15.792C1.53271 15.3227 1.58604 14.8853 1.67138 14.48C1.86338 13.3067 2.24738 12.272 2.82338 11.376L3.01538 11.056C3.03671 11.0347 3.04738 11.0133 3.04738 10.992C3.06871 10.9707 3.09004 10.9493 3.11138 10.928C3.15404 10.864 3.19671 10.8 3.23938 10.736C3.30338 10.672 3.35671 10.6187 3.39938 10.576C4.31671 9.50933 5.51138 8.69867 6.98338 8.144C8.47671 7.58933 10.1727 7.30133 12.0714 7.28H12.4874C12.6794 7.28 12.882 7.28 13.0954 7.28C13.3087 7.28 13.49 7.29067 13.6394 7.312C13.7034 7.312 13.7674 7.32267 13.8314 7.344C13.8954 7.344 13.9594 7.344 14.0234 7.344L14.6634 7.408C14.77 7.42933 14.8767 7.45067 14.9834 7.472C15.09 7.472 15.186 7.48267 15.2714 7.504C15.762 7.568 16.242 7.664 16.7114 7.792C16.7327 7.792 16.7434 7.80267 16.7434 7.824C17.9167 8.12267 18.93 8.53867 19.7834 9.072C20.658 9.584 21.3834 10.1813 21.9594 10.864C22.066 10.992 22.1727 11.1307 22.2794 11.28C22.386 11.408 22.482 11.5573 22.5674 11.728C22.5674 11.7493 22.5887 11.7813 22.6314 11.824C22.674 11.9093 22.7167 12.0053 22.7594 12.112C22.8234 12.2187 22.8767 12.3253 22.9194 12.432C23.1114 12.88 23.2394 13.3493 23.3034 13.84V14C23.3247 14.064 23.3354 14.128 23.3354 14.192C23.3354 14.256 23.3354 14.32 23.3354 14.384V14.576C23.3354 14.6187 23.314 14.6613 23.2714 14.704C23.2714 14.704 23.2607 14.7147 23.2394 14.736C23.2394 14.736 23.2394 14.7467 23.2394 14.768C23.2394 14.768 23.218 14.7893 23.1754 14.832C23.218 14.832 23.2287 14.8427 23.2074 14.864C23.186 14.864 23.1434 14.896 23.0794 14.96C23.058 14.9813 23.0367 15.0133 23.0154 15.056C22.994 15.0773 22.9727 15.1093 22.9514 15.152C22.93 15.1733 22.9194 15.1947 22.9194 15.216C22.9194 15.2373 22.9087 15.2587 22.8874 15.28C22.866 15.3013 22.8447 15.344 22.8234 15.408C22.8234 15.472 22.802 15.4933 22.7594 15.472C22.7167 15.472 22.6954 15.4507 22.6954 15.408C22.6954 15.344 22.6847 15.2907 22.6634 15.248C22.642 15.248 22.6314 15.248 22.6314 15.248C22.6314 15.2267 22.6314 15.216 22.6314 15.216C22.61 15.1947 22.578 15.1947 22.5354 15.216C22.514 15.2373 22.482 15.2587 22.4394 15.28C22.3967 15.3227 22.3754 15.344 22.3754 15.344C22.354 15.3653 22.3114 15.376 22.2474 15.376C22.2047 15.376 22.162 15.3867 22.1194 15.408C21.97 15.4507 21.81 15.504 21.6394 15.568C21.49 15.632 21.33 15.6533 21.1594 15.632C21.01 15.632 20.8714 15.6107 20.7434 15.568C20.6367 15.504 20.5087 15.4613 20.3594 15.44C20.2527 15.3973 20.1354 15.3867 20.0074 15.408C19.9007 15.4293 19.7834 15.44 19.6554 15.44C19.6127 15.44 19.57 15.44 19.5274 15.44C19.4847 15.4187 19.442 15.408 19.3994 15.408C19.2927 15.4293 19.186 15.4933 19.0794 15.6C18.994 15.6853 18.9087 15.76 18.8234 15.824C18.738 15.888 18.642 15.9307 18.5354 15.952C18.4287 15.9733 18.322 16.0053 18.2154 16.048C18.1087 16.112 18.0127 16.1973 17.9274 16.304C17.842 16.3893 17.746 16.4533 17.6394 16.496H22.4714C22.642 16.496 22.8127 16.5493 22.9834 16.656L23.1754 16.848C23.282 16.9973 23.3354 17.168 23.3354 17.36C23.3354 17.5307 23.3354 17.7013 23.3354 17.872V19.76C23.3354 20.144 23.3354 20.528 23.3354 20.912C23.3567 21.296 23.3567 21.68 23.3354 22.064C23.314 22.5973 23.25 23.0987 23.1434 23.568C23.0367 24.016 22.898 24.4533 22.7274 24.88L22.4394 25.52C22.354 25.6693 22.2687 25.8187 22.1834 25.968C22.1194 26.1173 22.034 26.256 21.9274 26.384ZM12.3594 24.08H12.4554C12.882 24.08 13.3087 24.016 13.7354 23.888C14.1834 23.7387 14.5354 23.4933 14.7914 23.152C14.898 22.9813 14.9727 22.8213 15.0154 22.672C15.0794 22.5013 15.122 22.3413 15.1434 22.192C15.1434 22.1707 15.1434 22.1387 15.1434 22.096C15.1647 22.0533 15.1754 22.0107 15.1754 21.968L15.0794 21.776C15.0154 21.7973 14.962 21.8507 14.9194 21.936C14.8767 22.0213 14.834 22.0853 14.7914 22.128C14.7274 22.2133 14.6527 22.288 14.5674 22.352C14.5034 22.416 14.4287 22.48 14.3434 22.544C14.3007 22.5653 14.258 22.5867 14.2154 22.608C14.1727 22.608 14.13 22.608 14.0874 22.608C13.938 22.6507 13.7994 22.608 13.6714 22.48L13.5114 22.32C13.426 22.2133 13.362 22.096 13.3194 21.968C13.2767 21.84 13.2234 21.7227 13.1594 21.616V21.584C13.0527 21.52 12.9567 21.4133 12.8714 21.264C12.8714 21.2427 12.8607 21.232 12.8394 21.232C12.8394 21.2107 12.8394 21.1893 12.8394 21.168C12.8394 21.1467 12.8287 21.1253 12.8074 21.104C12.8074 21.0827 12.8074 21.0613 12.8074 21.04V21.008C12.786 20.8587 12.7754 20.7093 12.7754 20.56C12.7967 20.4107 12.8074 20.272 12.8074 20.144V18.512C12.8074 18.32 12.7967 18.1173 12.7754 17.904C12.754 17.6693 12.7647 17.456 12.8074 17.264C12.85 17.072 12.9034 16.9333 12.9674 16.848C13.01 16.8053 13.0314 16.784 13.0314 16.784C13.202 16.592 13.4154 16.496 13.6714 16.496H17.0954C16.9887 16.4533 16.882 16.4 16.7754 16.336C16.6687 16.272 16.5727 16.2187 16.4874 16.176C16.21 16.0053 15.9327 15.856 15.6554 15.728C15.378 15.5787 15.1327 15.376 14.9194 15.12L14.7274 14.896C14.706 14.8747 14.6847 14.8533 14.6634 14.832C14.6634 14.8107 14.6527 14.7893 14.6314 14.768L14.5354 14.672C14.4714 14.5867 14.4074 14.5013 14.3434 14.416C14.2794 14.3307 14.2047 14.2453 14.1194 14.16L13.9274 14L13.7034 14.224C13.682 14.2027 13.6714 14.1707 13.6714 14.128C13.6074 14.1493 13.5434 14.1707 13.4794 14.192C13.4367 14.192 13.394 14.1707 13.3514 14.128C13.3727 14.2773 13.3834 14.4373 13.3834 14.608C13.4047 14.7787 13.3514 14.864 13.2234 14.864C13.074 14.864 13.0207 14.736 13.0634 14.48C13.1274 14.224 13.138 14.0213 13.0954 13.872C13.0954 13.8507 13.074 13.84 13.0314 13.84C13.01 13.8187 12.9887 13.8293 12.9674 13.872C12.946 14.0213 12.9354 14.192 12.9354 14.384C12.9354 14.5547 12.9034 14.7253 12.8394 14.896C12.818 14.9173 12.7967 14.896 12.7754 14.832C12.754 14.768 12.7327 14.7147 12.7114 14.672L12.5834 14.352C12.562 14.288 12.5407 14.224 12.5194 14.16C12.498 14.0747 12.4767 13.9893 12.4554 13.904C12.3914 13.968 12.3274 14.0213 12.2634 14.064C12.2207 14.1067 12.146 14.1387 12.0394 14.16C12.018 14.1813 11.9647 14.2027 11.8794 14.224C11.794 14.224 11.73 14.2133 11.6874 14.192C11.6874 14.192 11.6767 14.192 11.6554 14.192C11.6554 14.192 11.6554 14.1813 11.6554 14.16C11.6127 14.1173 11.5914 14.0747 11.5914 14.032C11.5914 13.9893 11.5807 13.9573 11.5594 13.936C11.5594 13.8933 11.5594 13.8613 11.5594 13.84C11.474 13.84 11.3994 13.8507 11.3354 13.872C11.25 14.0213 11.218 14.1173 11.2394 14.16C11.282 14.1813 11.2394 14.2667 11.1114 14.416C10.9834 14.5653 10.8767 14.5547 10.7914 14.384C10.7274 14.2133 10.6527 14.1173 10.5674 14.096C10.5674 14.096 10.5354 14.128 10.4714 14.192L10.4394 14.224L10.2794 14.416C10.258 14.4373 10.2474 14.4587 10.2474 14.48C10.2474 14.5013 10.2367 14.5227 10.2154 14.544C10.066 14.8213 9.97004 15.12 9.92738 15.44C9.88471 15.7387 9.86338 16.0373 9.86338 16.336C9.86338 16.4427 9.85271 16.5813 9.83138 16.752C9.83138 16.9013 9.83138 17.0613 9.83138 17.232V19.92C9.83138 20.1333 9.83138 20.336 9.83138 20.528C9.83138 20.6987 9.84204 20.848 9.86338 20.976C9.86338 21.1253 9.86338 21.2747 9.86338 21.424C9.86338 21.552 9.87404 21.6907 9.89538 21.84C9.93804 22.0533 9.99138 22.2773 10.0554 22.512C10.1194 22.7253 10.2154 22.928 10.3434 23.12C10.514 23.3973 10.738 23.6107 11.0154 23.76C11.2927 23.9093 11.5807 24.0053 11.8794 24.048C11.9647 24.048 12.0394 24.0587 12.1034 24.08C12.1887 24.08 12.274 24.08 12.3594 24.08ZM13.6394 32.656C13.7247 32.6773 13.778 32.8053 13.7994 33.04C13.8207 33.2747 13.8207 33.5413 13.7994 33.84C13.778 33.6267 13.746 33.424 13.7034 33.232C13.682 33.04 13.6607 32.848 13.6394 32.656ZM13.3514 36.464C13.394 36.6773 13.394 36.688 13.3514 36.496C13.3087 36.3253 13.2554 36.0373 13.1914 35.632C13.1487 35.248 13.1167 34.8213 13.0954 34.352C13.0954 33.904 13.1487 33.52 13.2554 33.2C13.234 33.84 13.2234 34.4693 13.2234 35.088C13.2234 35.7067 13.266 36.1653 13.3514 36.464ZM13.6074 36.208C13.5647 36.4 13.554 36.3787 13.5754 36.144C13.618 35.9093 13.6607 35.568 13.7034 35.12C13.7674 34.672 13.7994 34.2453 13.7994 33.84C13.8847 34.3093 13.9274 34.7573 13.9274 35.184C13.9487 35.632 13.842 35.9733 13.6074 36.208ZM44.0371 21.168C44.0585 21.5093 44.0585 21.8507 44.0371 22.192C44.0371 22.5333 44.0265 22.864 44.0051 23.184C43.9625 23.8453 43.8665 24.464 43.7171 25.04C43.5678 25.5947 43.3545 26.1067 43.0771 26.576C42.9918 26.7253 42.9065 26.8747 42.8211 27.024C42.7358 27.1733 42.6398 27.3227 42.5331 27.472C42.4265 27.6 42.3091 27.7173 42.1811 27.824C42.1811 27.8453 42.1705 27.8667 42.1491 27.888C42.0638 28.016 41.9571 28.1227 41.8291 28.208C41.8078 28.2293 41.7865 28.2507 41.7651 28.272C41.7438 28.2933 41.7118 28.3253 41.6691 28.368C41.6478 28.3893 41.6265 28.4107 41.6051 28.432C41.5838 28.4533 41.5625 28.4747 41.5411 28.496L41.3491 28.912C41.3491 28.9973 41.3491 29.0827 41.3491 29.168C41.3491 29.232 41.3385 29.3067 41.3171 29.392C41.2958 29.5413 41.2958 29.744 41.3171 30C41.3385 30.2347 41.2958 30.3093 41.1891 30.224C41.1251 30.16 41.0825 30.0853 41.0611 30C41.0611 29.8933 41.0611 29.7973 41.0611 29.712C41.0611 29.7547 41.0398 29.7973 40.9971 29.84C40.9758 29.904 40.9331 29.968 40.8691 30.032C40.8265 30.1173 40.7625 30.1707 40.6771 30.192C40.5278 30.256 40.3998 30.2027 40.2931 30.032C40.2078 29.8827 40.1438 29.7653 40.1011 29.68C40.1011 29.6587 40.0905 29.6373 40.0691 29.616C39.9198 29.8933 39.8558 30.2027 39.8771 30.544C39.8985 30.9067 39.8878 31.2587 39.8451 31.6C39.8451 31.6853 39.8345 31.7813 39.8131 31.888C39.7918 32.016 39.7705 32.1333 39.7491 32.24C39.7278 32.368 39.6745 32.4853 39.5891 32.592C39.5891 32.656 39.5465 32.688 39.4611 32.688C39.3758 32.6453 39.3331 32.592 39.3331 32.528C39.2905 32.1653 39.2691 31.792 39.2691 31.408C39.2691 31.024 39.2478 30.6507 39.2051 30.288C39.2051 30.288 39.1945 30.2773 39.1731 30.256C39.1731 30.256 39.1625 30.256 39.1411 30.256C39.0771 30.2773 39.0131 30.3093 38.9491 30.352C38.8851 30.3947 38.8318 30.4373 38.7891 30.48C38.6398 30.6293 38.5118 30.8107 38.4051 31.024C38.3411 31.152 38.2771 31.28 38.2131 31.408C38.1705 31.536 38.1171 31.6533 38.0531 31.76C38.0318 31.7813 37.9998 31.824 37.9571 31.888C37.9358 31.9733 37.9251 32.0053 37.9251 31.984C37.8825 31.7493 37.8611 31.5147 37.8611 31.28C37.8611 31.0453 37.8398 30.8213 37.7971 30.608C37.8398 30.608 37.7758 30.5973 37.6051 30.576C37.4558 30.576 37.3918 30.5867 37.4131 30.608C37.3705 30.9493 37.3491 31.2907 37.3491 31.632C37.3491 31.9733 37.3278 32.3147 37.2851 32.656C37.2851 32.6773 37.2425 32.72 37.1571 32.784C37.0931 32.848 37.0505 32.8907 37.0291 32.912C37.0078 32.9333 36.9758 32.944 36.9331 32.944C36.9118 32.9653 36.9011 32.9653 36.9011 32.944C36.8585 32.5813 36.8371 32.208 36.8371 31.824C36.8371 31.4613 36.8051 31.0987 36.7411 30.736C36.6771 30.7573 36.6238 30.7893 36.5811 30.832C36.5385 30.8747 36.5171 30.896 36.5171 30.896C36.4958 30.9173 36.4745 30.9493 36.4531 30.992C36.4531 31.056 36.4318 31.1093 36.3891 31.152C36.3678 31.152 36.3145 31.1093 36.2291 31.024C36.2078 30.9813 36.1865 30.9387 36.1651 30.896C36.1651 30.8533 36.1438 30.8213 36.1011 30.8C36.1011 30.7787 36.0905 30.768 36.0691 30.768C36.0478 30.7467 36.0371 30.736 36.0371 30.736C36.0371 30.7573 36.0265 30.7573 36.0051 30.736H35.8131C35.8131 30.8213 35.8131 30.9067 35.8131 30.992C35.8131 31.0773 35.7918 31.1733 35.7491 31.28C35.7491 31.28 35.6638 31.184 35.4931 30.992C35.3865 30.8853 35.3331 30.832 35.3331 30.832C35.3331 30.8533 35.3011 30.8533 35.2371 30.832C35.1518 30.832 35.1091 30.8213 35.1091 30.8C35.0878 31.0987 35.0665 31.3867 35.0451 31.664C35.0451 31.9627 35.0238 32.2613 34.9811 32.56C34.9811 32.6027 34.9598 32.5813 34.9171 32.496C34.8958 32.4107 34.8745 32.3467 34.8531 32.304C34.8318 32.24 34.8105 32.176 34.7891 32.112C34.7678 32.0693 34.7465 32.016 34.7251 31.952C34.6611 31.6747 34.6078 31.3973 34.5651 31.12C34.5438 30.864 34.5118 30.5973 34.4691 30.32H34.2771C31.3758 30.256 29.1891 29.584 27.7171 28.304L27.5251 28.112C26.2665 26.9173 25.5731 25.2747 25.4451 23.184C25.3811 22.1813 25.3811 21.1787 25.4451 20.176C25.6158 17.808 26.5118 16.0267 28.1331 14.832C29.7758 13.6373 32.0158 13.04 34.8531 13.04H35.1411C35.4398 13.04 35.7385 13.0507 36.0371 13.072C36.3358 13.0933 36.6238 13.1253 36.9011 13.168C36.9438 13.168 36.9758 13.1787 36.9971 13.2C39.1945 13.52 40.9545 14.352 42.2771 15.696C42.3198 15.7387 42.3731 15.8133 42.4371 15.92C42.5225 16.0053 42.5758 16.0693 42.5971 16.112C43.1945 16.9013 43.5998 17.7867 43.8131 18.768C43.8131 18.7893 43.8131 18.8107 43.8131 18.832C43.8345 18.8533 43.8451 18.8747 43.8451 18.896C43.9305 19.2587 43.9838 19.6427 44.0051 20.048C44.0265 20.432 44.0371 20.8053 44.0371 21.168ZM33.8611 24.976C33.9251 25.0187 33.9998 25.0613 34.0851 25.104C34.3198 25.168 34.5011 25.2 34.6291 25.2C34.7571 25.2 34.8851 25.1893 35.0131 25.168H35.2051C35.2905 25.1253 35.3651 25.0933 35.4291 25.072C35.5145 25.0293 35.5891 24.9867 35.6531 24.944C35.8238 24.7733 35.9305 24.5707 35.9731 24.336C36.0371 24.1013 36.0798 23.8773 36.1011 23.664C36.1225 23.536 36.1331 23.3973 36.1331 23.248C36.1545 23.0987 36.1651 22.9493 36.1651 22.8C36.1865 22.5013 36.1971 22.1493 36.1971 21.744C36.1971 21.3387 36.1865 20.976 36.1651 20.656C36.1651 20.5493 36.1651 20.4427 36.1651 20.336C36.1651 20.2293 36.1545 20.1333 36.1331 20.048C36.1331 19.9627 36.1225 19.888 36.1011 19.824C36.1011 19.7387 36.1011 19.6533 36.1011 19.568C36.0371 19.0133 35.8878 18.64 35.6531 18.448C35.5678 18.3627 35.5038 18.32 35.4611 18.32C35.4398 18.2987 35.4078 18.288 35.3651 18.288C35.3438 18.288 35.3225 18.288 35.3011 18.288C35.2798 18.2667 35.2585 18.2667 35.2371 18.288C35.2158 18.3093 35.1945 18.3627 35.1731 18.448C35.1731 18.512 35.1518 18.5653 35.1091 18.608C35.0878 18.6507 35.0238 18.6827 34.9171 18.704C34.8318 18.704 34.7678 18.6933 34.7251 18.672C34.5971 18.6507 34.4798 18.5867 34.3731 18.48H34.1811C34.1598 18.4587 34.1385 18.4373 34.1171 18.416C34.0958 18.3733 34.0638 18.3413 34.0211 18.32C33.9571 18.32 33.8931 18.352 33.8291 18.416C33.6798 18.544 33.5731 18.7253 33.5091 18.96C33.4451 19.1733 33.3918 19.4293 33.3491 19.728C33.3278 19.792 33.3171 19.8773 33.3171 19.984C33.3171 20.048 33.3065 20.1227 33.2851 20.208C33.2851 20.272 33.2851 20.3467 33.2851 20.432C33.2638 20.6027 33.2531 20.8053 33.2531 21.04C33.2531 21.2747 33.2531 21.5093 33.2531 21.744C33.2531 21.8933 33.2531 22.0427 33.2531 22.192C33.2745 22.32 33.2851 22.4587 33.2851 22.608C33.2851 22.7573 33.2851 22.9067 33.2851 23.056C33.2851 23.2053 33.2958 23.3333 33.3171 23.44C33.3598 23.824 33.4025 24.1227 33.4451 24.336C33.5091 24.5493 33.6478 24.7627 33.8611 24.976ZM71.1084 8.4C71.1084 8.54933 71.087 8.69867 71.0444 8.848C71.023 8.99733 71.0017 9.15733 70.9804 9.328L70.7884 10.544C70.767 10.928 70.7244 11.3227 70.6604 11.728C70.6177 12.1333 70.5537 12.496 70.4684 12.816L69.7004 18.128L69.6044 18.992V19.088C69.583 19.3013 69.5617 19.5147 69.5404 19.728C69.519 19.9413 69.487 20.1547 69.4444 20.368C69.423 20.688 69.391 21.0187 69.3484 21.36C69.3057 21.68 69.263 21.9893 69.2204 22.288C69.135 23.0987 69.039 23.8027 68.9324 24.4C68.847 24.976 68.751 25.3387 68.6444 25.488C68.6444 25.5307 68.6337 25.584 68.6124 25.648C68.6124 25.6907 68.6124 25.7333 68.6124 25.776C68.5697 26.0533 68.527 26.32 68.4844 26.576C68.463 26.832 68.431 27.0667 68.3884 27.28C68.3884 27.3013 68.3777 27.3333 68.3564 27.376C68.3564 27.3973 68.3564 27.4293 68.3564 27.472L68.3244 27.696C68.303 27.888 68.2817 28.0907 68.2604 28.304C68.239 28.5173 68.1964 28.72 68.1324 28.912C68.1324 28.976 68.111 29.0507 68.0684 29.136C68.047 29.1787 68.0257 29.2213 68.0044 29.264C67.983 29.3067 67.9617 29.3493 67.9404 29.392C67.919 29.4133 67.8977 29.4453 67.8764 29.488C67.855 29.5093 67.823 29.5307 67.7804 29.552C67.695 29.6373 67.6204 29.7013 67.5564 29.744C67.4924 29.8293 67.4497 29.9147 67.4284 30C67.4284 30.064 67.4284 30.096 67.4284 30.096C67.407 30.1173 67.3964 30.1493 67.3964 30.192C67.3964 30.256 67.375 30.32 67.3324 30.384C67.311 30.4693 67.279 30.544 67.2364 30.608C67.1937 30.6933 67.151 30.7893 67.1084 30.896C67.087 30.9813 67.0444 31.0667 66.9804 31.152C66.9377 31.2373 66.895 31.3333 66.8524 31.44L66.7564 31.632C66.735 31.6533 66.7137 31.6747 66.6924 31.696C66.6924 31.7173 66.6817 31.7387 66.6604 31.76C66.575 31.9307 66.4577 32.08 66.3084 32.208C66.159 32.336 66.0097 32.4747 65.8604 32.624L65.7324 32.816C65.6257 32.9653 65.5297 33.136 65.4444 33.328C65.359 33.52 65.263 33.7013 65.1564 33.872C65.135 33.8933 65.103 33.936 65.0604 34C65.0177 34.0853 64.9644 34.128 64.9004 34.128C64.815 34.128 64.7297 34.0533 64.6444 33.904C64.623 33.8613 64.6017 33.8187 64.5804 33.776C64.559 33.7333 64.5377 33.6907 64.5164 33.648C64.431 33.456 64.3564 33.2747 64.2924 33.104C64.2284 32.9333 64.175 32.784 64.1324 32.656C64.111 32.592 64.079 32.5387 64.0364 32.496C63.9937 32.4533 63.9724 32.432 63.9724 32.432C63.9937 32.4533 63.9937 32.4427 63.9724 32.4C63.951 32.3787 63.9297 32.3573 63.9084 32.336C63.9084 32.336 63.887 32.3147 63.8444 32.272C63.823 32.272 63.8124 32.2613 63.8124 32.24C63.8124 32.24 63.8017 32.24 63.7804 32.24C63.759 32.432 63.7697 32.8053 63.8124 33.36C63.855 33.936 63.8977 34.5653 63.9404 35.248C64.0044 35.952 64.047 36.6133 64.0684 37.232C64.0897 37.8507 64.0684 38.32 64.0044 38.64C63.9404 38.9813 63.8124 39.056 63.6204 38.864C63.3857 38.6293 63.247 38.192 63.2044 37.552C63.1617 36.9333 63.1724 36.24 63.2364 35.472C63.3004 34.7253 63.3644 34.032 63.4284 33.392C63.4924 32.7733 63.5137 32.336 63.4924 32.08C63.4497 32.0373 63.4284 32.016 63.4284 32.016C63.4284 32.016 63.4177 32.016 63.3964 32.016C63.3964 32.016 63.3964 32.0053 63.3964 31.984C63.375 31.9627 63.343 31.92 63.3004 31.856C63.279 31.8133 63.2577 31.7813 63.2364 31.76C63.1297 31.4827 63.0444 31.2373 62.9804 31.024C62.959 30.9173 62.927 30.8 62.8844 30.672C62.8417 30.544 62.799 30.416 62.7564 30.288C62.735 30.2667 62.7244 30.2133 62.7244 30.128C62.703 30.1493 62.671 30.1813 62.6284 30.224C62.607 30.2667 62.575 30.2667 62.5324 30.224C62.511 30.2453 62.5004 30.256 62.5004 30.256C62.5004 30.2773 62.5004 30.288 62.5004 30.288C62.4577 30.3733 62.415 30.4267 62.3724 30.448C62.3297 30.4907 62.287 30.512 62.2444 30.512C62.2017 30.5973 62.1804 30.6933 62.1804 30.8C62.1804 30.9067 62.159 31.0027 62.1164 31.088C62.095 31.1093 62.063 31.1093 62.0204 31.088C61.999 31.088 61.9884 31.0773 61.9884 31.056C61.9457 30.9493 61.9244 30.832 61.9244 30.704C61.9244 30.5973 61.903 30.48 61.8604 30.352C61.839 30.352 61.8284 30.3413 61.8284 30.32C61.8284 30.32 61.8177 30.32 61.7964 30.32C61.7964 30.2987 61.7857 30.288 61.7644 30.288C61.7004 30.2453 61.6364 30.192 61.5724 30.128C61.5297 30.0853 61.487 30.0427 61.4444 30C61.423 29.9573 61.391 29.9147 61.3484 29.872C61.3057 29.8293 61.263 29.7867 61.2204 29.744C61.199 29.7013 61.167 29.6587 61.1244 29.616C61.0817 29.5733 61.039 29.5307 60.9964 29.488C60.9537 29.424 60.911 29.3493 60.8684 29.264C60.8044 29.1573 60.7404 29.04 60.6764 28.912C60.6337 28.784 60.591 28.656 60.5484 28.528L60.4524 28.272C60.4524 28.2507 60.4417 28.24 60.4204 28.24C60.4204 28.24 60.4204 28.2293 60.4204 28.208C60.3777 28.1227 60.3564 28.0587 60.3564 28.016C60.335 27.9947 60.3244 27.9627 60.3244 27.92L60.2284 27.728C60.1217 27.4933 60.0364 27.28 59.9724 27.088C59.887 26.896 59.8017 26.6933 59.7164 26.48C59.631 26.2453 59.5457 26.0213 59.4604 25.808L59.3324 25.456C59.183 25.1147 59.0337 24.7733 58.8844 24.432C58.7564 24.0907 58.6284 23.7493 58.5004 23.408L58.4044 23.12L58.3084 22.928L58.2124 22.704C58.2124 22.6827 58.2124 22.6507 58.2124 22.608C58.2124 22.544 58.191 22.576 58.1484 22.704C58.127 22.7253 58.1057 22.7573 58.0844 22.8C58.0844 22.8427 58.0737 22.8853 58.0524 22.928L57.8284 23.472L57.5404 24.208C57.5404 24.208 57.5404 24.2187 57.5404 24.24C57.5404 24.24 57.5297 24.24 57.5084 24.24C57.4444 24.432 57.3697 24.624 57.2844 24.816C57.2204 25.008 57.1457 25.2 57.0604 25.392C57.0604 25.4133 57.0497 25.424 57.0284 25.424C57.0284 25.424 57.0284 25.4347 57.0284 25.456L56.8364 25.936C56.751 26.192 56.655 26.448 56.5484 26.704C56.463 26.9387 56.367 27.1733 56.2604 27.408C56.1537 27.7493 56.0364 28.08 55.9084 28.4C55.8017 28.72 55.6737 28.9973 55.5244 29.232C55.503 29.2533 55.4604 29.3067 55.3964 29.392C55.3537 29.4773 55.343 29.5093 55.3644 29.488C55.3004 29.5947 55.1937 29.7013 55.0444 29.808C55.0017 30 54.959 30.192 54.9164 30.384C54.8737 30.5973 54.8204 30.7893 54.7564 30.96C54.7137 31.1093 54.6497 31.2587 54.5644 31.408C54.5004 31.5787 54.4257 31.7493 54.3404 31.92L54.0204 32.624C53.935 32.8373 53.8497 33.0507 53.7644 33.264C53.7004 33.4987 53.6257 33.7333 53.5404 33.968C53.519 34.0107 53.4977 34.0533 53.4764 34.096C53.455 34.16 53.4337 34.2133 53.4124 34.256C53.4124 34.2773 53.391 34.3307 53.3484 34.416C53.3484 34.48 53.327 34.5333 53.2844 34.576C53.2417 34.6187 53.2204 34.64 53.2204 34.64L53.1884 34.672C53.1884 34.6933 53.1777 34.704 53.1564 34.704C53.135 34.704 53.1244 34.704 53.1244 34.704C53.1244 34.7253 53.1137 34.736 53.0924 34.736C53.071 34.9707 53.0924 35.2693 53.1564 35.632C53.2417 36.016 53.3057 36.3893 53.3484 36.752C53.4124 37.1147 53.423 37.392 53.3804 37.584C53.3377 37.7973 53.199 37.8613 52.9644 37.776C52.6444 37.648 52.4844 37.392 52.4844 37.008C52.5057 36.6453 52.5804 36.24 52.7084 35.792C52.8364 35.3653 52.8897 34.992 52.8684 34.672L52.7084 34.416V34.384C52.6657 34.3413 52.6444 34.32 52.6444 34.32C52.6017 34.2133 52.5484 34.096 52.4844 33.968C52.4417 33.8613 52.3884 33.7547 52.3244 33.648L52.1964 33.52C52.1537 33.456 52.0897 33.4027 52.0044 33.36C51.9404 33.3173 51.887 33.264 51.8444 33.2C51.8444 33.2 51.823 33.1787 51.7804 33.136C51.759 33.1147 51.7377 33.0933 51.7164 33.072C51.695 33.0507 51.663 33.0293 51.6204 33.008C51.5777 32.9227 51.5564 32.88 51.5564 32.88C51.343 32.6027 51.183 32.2933 51.0764 31.952C50.991 31.632 50.895 31.3333 50.7884 31.056L50.6924 30.832C50.671 30.768 50.639 30.6933 50.5964 30.608C50.5537 30.544 50.511 30.48 50.4684 30.416C50.4257 30.3733 50.3937 30.3307 50.3724 30.288C50.351 30.2453 50.3297 30.2133 50.3084 30.192C50.287 30.1707 50.255 30.1493 50.2124 30.128L50.0524 30.064C50.031 30.064 50.0097 30.0533 49.9884 30.032C49.967 30.032 49.935 30.032 49.8924 30.032C49.8284 30.1173 49.7964 30.288 49.7964 30.544C49.8177 30.8213 49.8497 31.088 49.8924 31.344C49.935 31.6 49.9457 31.7707 49.9244 31.856C49.9244 31.9627 49.9137 32.112 49.8924 32.304C49.871 32.496 49.8497 32.656 49.8284 32.784C49.8284 32.912 49.8177 32.9227 49.7964 32.816C49.711 32.4533 49.679 32.0693 49.7004 31.664C49.743 31.28 49.7324 30.896 49.6684 30.512L49.5724 30.192C49.551 30.1493 49.5404 30.1067 49.5404 30.064C49.5404 30.0427 49.5297 30.0213 49.5084 30C49.4657 30 49.4337 29.9893 49.4124 29.968C49.3484 29.968 49.2524 29.9467 49.1244 29.904C49.103 29.904 49.0817 29.904 49.0604 29.904C49.0604 29.8827 49.0497 29.872 49.0284 29.872C49.0284 29.872 49.0177 29.872 48.9964 29.872C48.9964 29.872 48.9964 29.8613 48.9964 29.84C48.9324 29.84 48.8897 29.8293 48.8684 29.808C48.7617 29.744 48.655 29.648 48.5484 29.52C48.463 29.392 48.3884 29.2747 48.3244 29.168C48.2604 29.04 48.2177 28.8907 48.1964 28.72C48.175 28.592 48.1537 28.464 48.1324 28.336C48.111 28.208 48.0897 28.08 48.0684 27.952L48.0364 27.6C48.015 27.472 47.9937 27.344 47.9724 27.216C47.951 27.088 47.9297 26.96 47.9084 26.832L47.7804 25.872C47.6737 25.7013 47.567 25.2853 47.4604 24.624C47.3537 23.9627 47.247 23.184 47.1404 22.288C47.0977 22.032 47.055 21.6907 47.0124 21.264C46.9697 20.8373 46.927 20.3893 46.8844 19.92C46.863 19.792 46.8417 19.664 46.8204 19.536C46.8204 19.408 46.8204 19.28 46.8204 19.152L45.8924 12.784C45.8924 12.7627 45.8817 12.752 45.8604 12.752C45.8604 12.752 45.8604 12.7413 45.8604 12.72C45.839 12.5707 45.8177 12.4213 45.7964 12.272C45.775 12.1013 45.7537 11.9413 45.7324 11.792L45.5404 10.448L45.3164 8.784C45.295 8.74133 45.2844 8.69867 45.2844 8.656L45.2524 8.304C45.2524 8.112 45.3164 7.952 45.4444 7.824C45.5937 7.67467 45.7644 7.6 45.9564 7.6H51.2684C51.5244 7.6 51.8124 7.6 52.1324 7.6C52.4737 7.6 52.7297 7.71733 52.9004 7.952C52.943 8.016 52.975 8.08 52.9964 8.144C53.0177 8.208 53.0284 8.272 53.0284 8.336C53.0497 8.35733 53.0604 8.4 53.0604 8.464L53.1244 8.944C53.1244 8.98667 53.1244 9.02933 53.1244 9.072C53.1457 9.11467 53.1564 9.15733 53.1564 9.2L53.2204 9.776C53.263 9.98933 53.295 10.2133 53.3164 10.448C53.3377 10.6827 53.359 10.928 53.3804 11.184L53.6364 13.232C53.679 13.5307 53.7217 13.872 53.7644 14.256C53.8284 14.6187 53.871 14.9813 53.8924 15.344L54.1164 17.328C54.1377 17.328 54.159 17.328 54.1804 17.328C54.2017 17.2427 54.2124 17.2107 54.2124 17.232C54.255 17.104 54.2977 16.976 54.3404 16.848C54.4044 16.6987 54.4577 16.5493 54.5004 16.4C54.5217 16.336 54.543 16.2827 54.5644 16.24C54.5857 16.176 54.607 16.112 54.6284 16.048L55.3324 13.872C55.4177 13.5093 55.5457 13.2107 55.7164 12.976C55.7804 12.8907 55.855 12.816 55.9404 12.752C56.0684 12.624 56.271 12.56 56.5484 12.56H56.9324C57.423 12.56 57.903 12.5493 58.3724 12.528C58.863 12.5067 59.343 12.5173 59.8124 12.56C60.1964 12.56 60.463 12.6773 60.6124 12.912C60.7617 13.1467 60.8577 13.3387 60.9004 13.488L62.1484 17.232C62.1484 17.296 62.1697 17.3707 62.2124 17.456C62.255 17.52 62.255 17.4773 62.2124 17.328C62.2337 17.2853 62.2444 17.232 62.2444 17.168C62.2444 17.104 62.255 17.0507 62.2764 17.008C62.2764 16.88 62.2764 16.7627 62.2764 16.656C62.2977 16.528 62.319 16.4 62.3404 16.272C62.383 16.1013 62.4044 15.9413 62.4044 15.792C62.4257 15.6213 62.447 15.4507 62.4684 15.28L62.5644 14.448C62.607 14.0427 62.6497 13.648 62.6924 13.264C62.735 12.88 62.7777 12.56 62.8204 12.304C62.863 11.92 62.9057 11.568 62.9484 11.248C62.991 10.928 63.023 10.672 63.0444 10.48L63.2364 8.976V8.816C63.2577 8.66667 63.279 8.528 63.3004 8.4C63.3217 8.25067 63.3644 8.12267 63.4284 8.016C63.4924 7.888 63.5884 7.792 63.7164 7.728C63.887 7.64267 64.1004 7.6 64.3564 7.6C64.4844 7.57867 64.6124 7.57867 64.7404 7.6C64.8684 7.6 64.9857 7.6 65.0924 7.6H69.8924C69.999 7.6 70.1057 7.6 70.2124 7.6C70.3404 7.57867 70.4577 7.57867 70.5644 7.6C70.7564 7.664 70.9057 7.78133 71.0124 7.952C71.0124 7.952 71.0124 7.96267 71.0124 7.984C71.0337 7.984 71.0444 7.99467 71.0444 8.016C71.0657 8.08 71.0764 8.13333 71.0764 8.176C71.0977 8.21867 71.1084 8.29333 71.1084 8.4ZM58.2124 22.704C58.2124 22.7467 58.2124 22.7467 58.2124 22.704V22.704ZM90.9746 21.168C90.996 21.5093 90.996 21.8507 90.9746 22.192C90.9746 22.5333 90.964 22.864 90.9426 23.184C90.9 23.8453 90.804 24.464 90.6546 25.04C90.5053 25.5947 90.292 26.1067 90.0146 26.576C89.9293 26.7253 89.844 26.8747 89.7586 27.024C89.6733 27.1733 89.5773 27.3227 89.4706 27.472C89.364 27.6 89.2466 27.7173 89.1186 27.824C89.1186 27.8453 89.108 27.8667 89.0866 27.888C89.0013 28.016 88.8946 28.1227 88.7666 28.208C88.7453 28.2293 88.724 28.2507 88.7026 28.272C88.6813 28.2933 88.6493 28.3253 88.6066 28.368C88.5853 28.3893 88.564 28.4107 88.5426 28.432C88.5213 28.4533 88.5 28.4747 88.4786 28.496L88.2866 28.912C88.2866 28.9973 88.2866 29.0827 88.2866 29.168C88.2866 29.232 88.276 29.3067 88.2546 29.392C88.2333 29.5413 88.2333 29.744 88.2546 30C88.276 30.2347 88.2333 30.3093 88.1266 30.224C88.0626 30.16 88.02 30.0853 87.9986 30C87.9986 29.8933 87.9986 29.7973 87.9986 29.712C87.9986 29.7547 87.9773 29.7973 87.9346 29.84C87.9133 29.904 87.8706 29.968 87.8066 30.032C87.764 30.1173 87.7 30.1707 87.6146 30.192C87.4653 30.256 87.3373 30.2027 87.2306 30.032C87.1453 29.8827 87.0813 29.7653 87.0386 29.68C87.0386 29.6587 87.028 29.6373 87.0066 29.616C86.8573 29.8933 86.7933 30.2027 86.8146 30.544C86.836 30.9067 86.8253 31.2587 86.7826 31.6C86.7826 31.6853 86.772 31.7813 86.7506 31.888C86.7293 32.016 86.708 32.1333 86.6866 32.24C86.6653 32.368 86.612 32.4853 86.5266 32.592C86.5266 32.656 86.484 32.688 86.3986 32.688C86.3133 32.6453 86.2706 32.592 86.2706 32.528C86.228 32.1653 86.2066 31.792 86.2066 31.408C86.2066 31.024 86.1853 30.6507 86.1426 30.288C86.1426 30.288 86.132 30.2773 86.1106 30.256C86.1106 30.256 86.1 30.256 86.0786 30.256C86.0146 30.2773 85.9506 30.3093 85.8866 30.352C85.8226 30.3947 85.7693 30.4373 85.7266 30.48C85.5773 30.6293 85.4493 30.8107 85.3426 31.024C85.2786 31.152 85.2146 31.28 85.1506 31.408C85.108 31.536 85.0546 31.6533 84.9906 31.76C84.9693 31.7813 84.9373 31.824 84.8946 31.888C84.8733 31.9733 84.8626 32.0053 84.8626 31.984C84.82 31.7493 84.7986 31.5147 84.7986 31.28C84.7986 31.0453 84.7773 30.8213 84.7346 30.608C84.7773 30.608 84.7133 30.5973 84.5426 30.576C84.3933 30.576 84.3293 30.5867 84.3506 30.608C84.308 30.9493 84.2866 31.2907 84.2866 31.632C84.2866 31.9733 84.2653 32.3147 84.2226 32.656C84.2226 32.6773 84.18 32.72 84.0946 32.784C84.0306 32.848 83.988 32.8907 83.9666 32.912C83.9453 32.9333 83.9133 32.944 83.8706 32.944C83.8493 32.9653 83.8386 32.9653 83.8386 32.944C83.796 32.5813 83.7746 32.208 83.7746 31.824C83.7746 31.4613 83.7426 31.0987 83.6786 30.736C83.6146 30.7573 83.5613 30.7893 83.5186 30.832C83.476 30.8747 83.4546 30.896 83.4546 30.896C83.4333 30.9173 83.412 30.9493 83.3906 30.992C83.3906 31.056 83.3693 31.1093 83.3266 31.152C83.3053 31.152 83.252 31.1093 83.1666 31.024C83.1453 30.9813 83.124 30.9387 83.1026 30.896C83.1026 30.8533 83.0813 30.8213 83.0386 30.8C83.0386 30.7787 83.028 30.768 83.0066 30.768C82.9853 30.7467 82.9746 30.736 82.9746 30.736C82.9746 30.7573 82.964 30.7573 82.9426 30.736H82.7506C82.7506 30.8213 82.7506 30.9067 82.7506 30.992C82.7506 31.0773 82.7293 31.1733 82.6866 31.28C82.6866 31.28 82.6013 31.184 82.4306 30.992C82.324 30.8853 82.2706 30.832 82.2706 30.832C82.2706 30.8533 82.2386 30.8533 82.1746 30.832C82.0893 30.832 82.0466 30.8213 82.0466 30.8C82.0253 31.0987 82.004 31.3867 81.9826 31.664C81.9826 31.9627 81.9613 32.2613 81.9186 32.56C81.9186 32.6027 81.8973 32.5813 81.8546 32.496C81.8333 32.4107 81.812 32.3467 81.7906 32.304C81.7693 32.24 81.748 32.176 81.7266 32.112C81.7053 32.0693 81.684 32.016 81.6626 31.952C81.5986 31.6747 81.5453 31.3973 81.5026 31.12C81.4813 30.864 81.4493 30.5973 81.4066 30.32H81.2146C78.3133 30.256 76.1266 29.584 74.6546 28.304L74.4626 28.112C73.204 26.9173 72.5106 25.2747 72.3826 23.184C72.3186 22.1813 72.3186 21.1787 72.3826 20.176C72.5533 17.808 73.4493 16.0267 75.0706 14.832C76.7133 13.6373 78.9533 13.04 81.7906 13.04H82.0786C82.3773 13.04 82.676 13.0507 82.9746 13.072C83.2733 13.0933 83.5613 13.1253 83.8386 13.168C83.8813 13.168 83.9133 13.1787 83.9346 13.2C86.132 13.52 87.892 14.352 89.2146 15.696C89.2573 15.7387 89.3106 15.8133 89.3746 15.92C89.46 16.0053 89.5133 16.0693 89.5346 16.112C90.132 16.9013 90.5373 17.7867 90.7506 18.768C90.7506 18.7893 90.7506 18.8107 90.7506 18.832C90.772 18.8533 90.7826 18.8747 90.7826 18.896C90.868 19.2587 90.9213 19.6427 90.9426 20.048C90.964 20.432 90.9746 20.8053 90.9746 21.168ZM80.7986 24.976C80.8626 25.0187 80.9373 25.0613 81.0226 25.104C81.2573 25.168 81.4386 25.2 81.5666 25.2C81.6946 25.2 81.8226 25.1893 81.9506 25.168H82.1426C82.228 25.1253 82.3026 25.0933 82.3666 25.072C82.452 25.0293 82.5266 24.9867 82.5906 24.944C82.7613 24.7733 82.868 24.5707 82.9106 24.336C82.9746 24.1013 83.0173 23.8773 83.0386 23.664C83.06 23.536 83.0706 23.3973 83.0706 23.248C83.092 23.0987 83.1026 22.9493 83.1026 22.8C83.124 22.5013 83.1346 22.1493 83.1346 21.744C83.1346 21.3387 83.124 20.976 83.1026 20.656C83.1026 20.5493 83.1026 20.4427 83.1026 20.336C83.1026 20.2293 83.092 20.1333 83.0706 20.048C83.0706 19.9627 83.06 19.888 83.0386 19.824C83.0386 19.7387 83.0386 19.6533 83.0386 19.568C82.9746 19.0133 82.8253 18.64 82.5906 18.448C82.5053 18.3627 82.4413 18.32 82.3986 18.32C82.3773 18.2987 82.3453 18.288 82.3026 18.288C82.2813 18.288 82.26 18.288 82.2386 18.288C82.2173 18.2667 82.196 18.2667 82.1746 18.288C82.1533 18.3093 82.132 18.3627 82.1106 18.448C82.1106 18.512 82.0893 18.5653 82.0466 18.608C82.0253 18.6507 81.9613 18.6827 81.8546 18.704C81.7693 18.704 81.7053 18.6933 81.6626 18.672C81.5346 18.6507 81.4173 18.5867 81.3106 18.48H81.1186C81.0973 18.4587 81.076 18.4373 81.0546 18.416C81.0333 18.3733 81.0013 18.3413 80.9586 18.32C80.8946 18.32 80.8306 18.352 80.7666 18.416C80.6173 18.544 80.5106 18.7253 80.4466 18.96C80.3826 19.1733 80.3293 19.4293 80.2866 19.728C80.2653 19.792 80.2546 19.8773 80.2546 19.984C80.2546 20.048 80.244 20.1227 80.2226 20.208C80.2226 20.272 80.2226 20.3467 80.2226 20.432C80.2013 20.6027 80.1906 20.8053 80.1906 21.04C80.1906 21.2747 80.1906 21.5093 80.1906 21.744C80.1906 21.8933 80.1906 22.0427 80.1906 22.192C80.212 22.32 80.2226 22.4587 80.2226 22.608C80.2226 22.7573 80.2226 22.9067 80.2226 23.056C80.2226 23.2053 80.2333 23.3333 80.2546 23.44C80.2973 23.824 80.34 24.1227 80.3826 24.336C80.4466 24.5493 80.5853 24.7627 80.7986 24.976ZM108.082 18.192C108.082 18.32 108.082 18.448 108.082 18.576C108.103 18.704 108.114 18.8427 108.114 18.992C108.114 19.0773 108.114 19.1627 108.114 19.248C108.114 19.3333 108.093 19.4187 108.05 19.504C107.986 19.6747 107.879 19.8133 107.73 19.92C107.73 19.92 107.719 19.92 107.698 19.92C107.698 19.92 107.698 19.9307 107.698 19.952C107.677 19.952 107.655 19.9627 107.634 19.984C107.634 19.984 107.623 19.984 107.602 19.984C107.495 20.1333 107.399 20.2827 107.314 20.432C107.229 20.5813 107.133 20.72 107.026 20.848C107.005 20.8693 106.983 20.9013 106.962 20.944C106.941 20.9653 106.909 20.9867 106.866 21.008C106.845 21.008 106.823 21.0187 106.802 21.04C106.802 21.04 106.791 21.0507 106.77 21.072C106.77 21.072 106.759 21.072 106.738 21.072C106.717 21.0933 106.685 21.2427 106.642 21.52C106.599 21.7973 106.546 21.9787 106.482 22.064C106.461 22.0853 106.418 22.0747 106.354 22.032C106.29 21.904 106.258 21.7653 106.258 21.616C106.237 21.5093 106.215 21.392 106.194 21.264C106.194 21.136 106.173 21.008 106.13 20.88L105.938 20.688C105.895 20.6453 105.821 20.5707 105.714 20.464C105.629 20.3573 105.533 20.2613 105.426 20.176L105.394 20.144C105.373 20.144 105.362 20.1547 105.362 20.176C105.362 20.176 105.351 20.176 105.33 20.176C105.287 20.2187 105.234 20.2827 105.17 20.368C105.127 20.432 105.063 20.4747 104.978 20.496C104.871 20.5173 104.786 20.4747 104.722 20.368C104.701 20.3893 104.647 20.4 104.562 20.4C104.477 20.4 104.413 20.3893 104.37 20.368L104.21 20.752C104.146 20.9013 104.071 21.0293 103.986 21.136C103.922 21.2427 103.837 21.3493 103.73 21.456C103.666 21.52 103.602 21.5947 103.538 21.68C103.474 21.744 103.41 21.7973 103.346 21.84C103.261 21.9253 103.218 21.9467 103.218 21.904C103.175 21.648 103.154 21.4453 103.154 21.296C103.175 21.1253 103.154 20.9013 103.09 20.624C103.047 20.6453 103.005 20.6773 102.962 20.72C102.877 20.7627 102.834 20.7947 102.834 20.816C102.791 20.9653 102.759 21.1253 102.738 21.296C102.738 21.4667 102.717 21.6267 102.674 21.776C102.653 21.7973 102.621 21.7973 102.578 21.776C102.557 21.7547 102.535 21.7333 102.514 21.712C102.493 21.5413 102.471 21.3813 102.45 21.232C102.45 21.0827 102.429 20.9333 102.386 20.784C102.386 20.7413 102.365 20.72 102.322 20.72C102.301 20.6987 102.279 20.6773 102.258 20.656C102.258 20.656 102.247 20.6453 102.226 20.624C102.205 20.6027 102.173 20.5813 102.13 20.56C102.13 20.6667 102.109 20.7413 102.066 20.784C102.066 20.784 102.013 20.7307 101.906 20.624H101.842C101.821 20.624 101.799 20.6133 101.778 20.592C101.778 20.5493 101.767 20.5173 101.746 20.496C101.725 20.5173 101.703 20.5387 101.682 20.56C101.661 20.56 101.639 20.5707 101.618 20.592C101.575 20.656 101.533 20.72 101.49 20.784C101.447 20.848 101.405 20.912 101.362 20.976C101.341 20.9973 101.33 21.0293 101.33 21.072C101.33 21.0933 101.319 21.1253 101.298 21.168C101.234 21.36 101.191 21.5627 101.17 21.776C101.17 21.9893 101.17 22.2027 101.17 22.416V28.752C101.17 28.8587 101.17 28.976 101.17 29.104C101.191 29.2107 101.181 29.3173 101.138 29.424C101.138 29.4453 101.127 29.4667 101.106 29.488C101.106 29.488 101.106 29.4987 101.106 29.52C101.106 29.52 101.085 29.5413 101.042 29.584C100.957 29.712 100.882 29.7973 100.818 29.84C100.861 29.7973 100.839 29.8187 100.754 29.904C100.669 29.968 100.615 30.0213 100.594 30.064C100.594 30.0853 100.583 30.1067 100.562 30.128C100.541 30.1707 100.519 30.224 100.498 30.288C100.498 30.352 100.466 30.3733 100.402 30.352C100.402 30.3733 100.391 30.384 100.37 30.384C100.327 30.4693 100.306 30.5227 100.306 30.544C100.263 30.5867 100.221 30.64 100.178 30.704C100.157 30.768 100.125 30.832 100.082 30.896C99.9112 31.1947 99.7939 31.3867 99.7299 31.472C99.6872 31.5787 99.5699 31.7493 99.3779 31.984C99.3565 32.0053 99.3245 32.0267 99.2819 32.048C99.2605 32.0907 99.2285 32.1333 99.1859 32.176C99.1645 32.1973 99.1219 32.2827 99.0579 32.432C98.9939 32.5813 98.9405 32.6667 98.8979 32.688C98.8765 32.7093 98.8339 32.6667 98.7699 32.56C98.7485 32.496 98.7379 32.4213 98.7379 32.336C98.7379 32.272 98.7165 32.208 98.6739 32.144L98.4819 31.92C98.3965 31.8347 98.3219 31.728 98.2579 31.6C98.1299 31.4293 98.0232 31.248 97.9379 31.056C97.8525 30.864 97.7565 30.672 97.6499 30.48C97.6499 30.4587 97.6392 30.448 97.6179 30.448C97.6179 30.448 97.6179 30.4373 97.6179 30.416C97.5539 30.352 97.5219 30.3413 97.5219 30.384C97.4792 30.5547 97.4579 30.736 97.4579 30.928C97.4792 31.12 97.4579 31.3013 97.3939 31.472C97.3725 31.536 97.3512 31.504 97.3299 31.376C97.3085 31.248 97.2872 31.152 97.2659 31.088L97.0099 30.352V30.32C96.9459 30.384 96.9032 30.416 96.8819 30.416C96.8392 30.416 96.7965 30.3947 96.7539 30.352C96.6899 30.5013 96.6259 30.6507 96.5619 30.8C96.5192 30.9493 96.4552 31.1093 96.3699 31.28C96.3485 31.3013 96.3272 31.3333 96.3059 31.376C96.3059 31.44 96.2845 31.4933 96.2419 31.536C96.2205 31.5573 96.1992 31.6 96.1779 31.664C96.1565 31.7493 96.1352 31.7707 96.1139 31.728C96.0499 31.3867 96.0392 31.1627 96.0819 31.056C96.1245 30.9707 96.0605 30.7893 95.8899 30.512C95.8259 30.5547 95.7725 30.6187 95.7299 30.704C95.7085 30.8533 95.6872 31.0133 95.6659 31.184C95.6659 31.3547 95.6445 31.5253 95.6019 31.696C95.6019 31.7173 95.5699 31.7813 95.5059 31.888C95.4632 32.016 95.4099 32.0907 95.3459 32.112C95.2392 32.1333 95.1539 32.0587 95.0899 31.888C95.0259 31.7173 94.9832 31.6107 94.9619 31.568C94.8765 31.376 94.8125 31.1733 94.7699 30.96C94.7485 30.768 94.6952 30.5867 94.6099 30.416C94.5672 30.3733 94.5245 30.3307 94.4819 30.288C94.4392 30.2453 94.3965 30.2027 94.3539 30.16C94.2899 30.1173 94.2579 30.0747 94.2579 30.032C94.2152 30.0107 94.1512 30 94.0659 30C94.0445 30 94.0232 30 94.0019 30C94.0019 29.9787 93.9805 29.968 93.9379 29.968C93.7672 29.904 93.6285 29.7973 93.5219 29.648C93.4792 29.6053 93.4365 29.52 93.3939 29.392C93.3512 29.2427 93.3299 29.072 93.3299 28.88C93.3512 28.688 93.3619 28.5173 93.3619 28.368V16.848C93.3619 16.528 93.3619 16.176 93.3619 15.792C93.3619 15.3867 93.3512 14.9813 93.3299 14.576C93.3299 14.4693 93.3299 14.3627 93.3299 14.256C93.3512 14.128 93.3725 14.0213 93.3939 13.936C93.4579 13.744 93.5752 13.5947 93.7459 13.488C93.8525 13.4453 93.9379 13.4133 94.0019 13.392C94.0659 13.3707 94.1619 13.36 94.2899 13.36C94.4392 13.3387 94.5885 13.3387 94.7379 13.36C94.8872 13.36 95.0259 13.36 95.1539 13.36H98.8659C99.0365 13.36 99.2179 13.3493 99.4099 13.328C99.6019 13.3067 99.7832 13.3173 99.9539 13.36C100.018 13.36 100.071 13.3707 100.114 13.392C100.327 13.456 100.466 13.5733 100.53 13.744C100.637 13.8933 100.69 14.0533 100.69 14.224V15.344L100.882 15.152C100.925 15.1307 100.957 15.1093 100.978 15.088C100.999 15.0667 101.01 15.056 101.01 15.056C101.053 15.0133 101.159 14.928 101.33 14.8C101.522 14.672 101.661 14.5867 101.746 14.544C101.874 14.4373 102.002 14.352 102.13 14.288C102.279 14.2027 102.418 14.128 102.546 14.064C102.717 13.9573 102.898 13.872 103.09 13.808C103.303 13.744 103.517 13.6907 103.73 13.648C104.349 13.456 104.999 13.36 105.682 13.36H106.226C106.333 13.36 106.45 13.36 106.578 13.36C106.706 13.3387 106.834 13.328 106.962 13.328C107.111 13.328 107.25 13.3387 107.378 13.36C107.527 13.3813 107.645 13.4347 107.73 13.52C107.858 13.6053 107.954 13.7227 108.018 13.872C108.061 14 108.082 14.1067 108.082 14.192V14.352C108.103 14.5013 108.103 14.6507 108.082 14.8C108.082 14.928 108.082 15.056 108.082 15.184V18.192ZM128.228 29.04C128.228 29.104 128.218 29.168 128.196 29.232C128.196 29.296 128.186 29.36 128.164 29.424C128.122 29.5093 128.09 29.5627 128.068 29.584C127.983 29.712 127.908 29.7973 127.844 29.84C127.802 29.8613 127.738 29.9147 127.652 30C127.61 30.0427 127.578 30.0853 127.556 30.128C127.471 30.2133 127.396 30.3093 127.332 30.416C127.268 30.5227 127.183 30.6187 127.076 30.704L126.98 30.8C126.895 31.056 126.842 31.3333 126.82 31.632C126.82 31.952 126.746 32.2293 126.596 32.464C126.532 32.592 126.447 32.56 126.34 32.368C126.298 32.2613 126.255 32.112 126.212 31.92C126.17 31.7493 126.127 31.6213 126.084 31.536C126.063 31.4507 126.052 31.3547 126.052 31.248C126.052 31.1627 126.01 31.0987 125.924 31.056C125.903 31.0347 125.871 31.024 125.828 31.024C125.764 31.024 125.69 31.0027 125.604 30.96C125.604 30.9813 125.636 31.0453 125.7 31.152C125.764 31.2587 125.807 31.344 125.828 31.408C125.871 31.4933 125.818 31.504 125.668 31.44C125.604 31.3973 125.551 31.3013 125.508 31.152C125.487 31.0027 125.476 30.9067 125.476 30.864C125.391 30.7787 125.327 30.704 125.284 30.64C125.263 30.5973 125.231 30.544 125.188 30.48C125.146 30.4373 125.103 30.384 125.06 30.32C125.018 30.5547 124.996 30.7893 124.996 31.024C124.996 31.2587 124.975 31.4933 124.932 31.728C124.932 31.7493 124.89 31.76 124.804 31.76C124.719 31.7813 124.634 31.792 124.548 31.792C124.463 31.792 124.378 31.7813 124.292 31.76C124.015 31.696 123.727 31.6107 123.428 31.504C123.151 31.4187 122.895 31.28 122.66 31.088C122.34 30.8747 122.031 30.6293 121.732 30.352L121.54 30.064C121.519 30.0427 121.498 30.0213 121.476 30C121.455 29.9787 121.423 29.9253 121.38 29.84V29.808C121.231 29.7013 121.135 29.5947 121.092 29.488C121.071 29.3813 121.05 29.2747 121.028 29.168V28.4C121.007 28.4213 120.986 28.4427 120.964 28.464C120.943 28.4853 120.911 28.5173 120.868 28.56C120.868 28.5813 120.858 28.6027 120.836 28.624C120.815 28.6453 120.804 28.656 120.804 28.656C120.783 28.6773 120.762 28.6987 120.74 28.72C120.719 28.72 120.698 28.7307 120.676 28.752C120.634 28.816 120.58 28.88 120.516 28.944C120.452 28.9867 120.388 29.0293 120.324 29.072L120.228 29.424C120.228 29.4453 120.218 29.4667 120.196 29.488C120.196 29.488 120.196 29.5093 120.196 29.552V29.584L120.004 30.096C119.94 30.2453 119.876 30.3947 119.812 30.544C119.748 30.6933 119.674 30.8213 119.588 30.928C119.524 31.0347 119.45 31.0987 119.364 31.12C119.343 31.1627 119.311 31.2373 119.268 31.344C119.247 31.4507 119.183 31.4933 119.076 31.472C118.991 31.4293 118.916 31.3547 118.852 31.248C118.81 31.1413 118.735 31.088 118.628 31.088C118.607 31.1093 118.564 31.1413 118.5 31.184C118.458 31.2267 118.426 31.2587 118.404 31.28C118.383 31.3013 118.33 31.3653 118.244 31.472C118.159 31.5787 118.084 31.6747 118.02 31.76C117.999 31.7813 117.978 31.792 117.956 31.792C117.935 31.8133 117.903 31.8347 117.86 31.856C117.839 32.1333 117.871 32.4747 117.956 32.88C118.042 33.3067 118.084 33.6693 118.084 33.968C118.106 34.288 117.978 34.4267 117.7 34.384C117.423 34.32 117.284 34.1387 117.284 33.84C117.306 33.5413 117.359 33.2 117.444 32.816C117.551 32.432 117.594 32.1013 117.572 31.824L117.476 31.728C117.476 31.728 117.466 31.728 117.444 31.728C117.444 31.728 117.444 31.7173 117.444 31.696C117.423 31.696 117.38 31.664 117.316 31.6C117.274 31.5573 117.242 31.5253 117.22 31.504L116.548 30.64C116.527 30.6187 116.516 30.5973 116.516 30.576C116.516 30.576 116.506 30.5653 116.484 30.544C116.42 30.6507 116.399 30.736 116.42 30.8C116.442 30.864 116.399 30.704 116.292 30.32H115.94C115.834 30.32 115.759 30.3093 115.716 30.288C114.65 30.224 113.711 29.9893 112.9 29.584C112.815 29.5413 112.73 29.4987 112.644 29.456C112.58 29.4133 112.516 29.36 112.452 29.296C111.599 28.7413 110.906 27.952 110.372 26.928C109.86 25.8827 109.572 24.5493 109.508 22.928C109.487 22.608 109.476 22.32 109.476 22.064C109.476 21.808 109.476 21.5413 109.476 21.264V21.072C109.476 21.008 109.487 20.9547 109.508 20.912V20.4C109.551 19.0133 109.796 17.8293 110.244 16.848C110.692 15.8453 111.279 15.0453 112.004 14.448C112.111 14.3413 112.228 14.256 112.356 14.192C113.444 13.424 114.756 13.04 116.292 13.04C116.42 13.04 116.548 13.04 116.676 13.04C116.826 13.04 116.954 13.0507 117.06 13.072C117.231 13.072 117.391 13.0827 117.54 13.104C117.711 13.1253 117.871 13.1573 118.02 13.2C118.063 13.2213 118.116 13.2427 118.18 13.264C118.244 13.264 118.308 13.2853 118.372 13.328C118.906 13.4773 119.396 13.7013 119.844 14L120.036 14.128C120.122 14.1707 120.186 14.224 120.228 14.288C120.292 14.3307 120.356 14.3733 120.42 14.416C120.42 14.4373 120.42 14.448 120.42 14.448C120.442 14.448 120.452 14.448 120.452 14.448C120.452 14.448 120.452 14.4587 120.452 14.48C120.452 14.48 120.463 14.48 120.484 14.48C120.484 14.6933 120.484 14.7893 120.484 14.768C120.506 14.7467 120.516 14.6827 120.516 14.576C120.538 14.4693 120.548 14.416 120.548 14.416V9.264C120.527 9.05067 120.506 8.82667 120.484 8.592C120.484 8.35733 120.506 8.144 120.548 7.952C120.612 7.71733 120.73 7.55733 120.9 7.472C121.028 7.344 121.199 7.28 121.412 7.28H125.7C125.871 7.28 126.116 7.28 126.436 7.28C126.756 7.25867 127.055 7.25867 127.332 7.28C127.524 7.28 127.663 7.32267 127.748 7.408C127.834 7.45067 127.887 7.48267 127.908 7.504C128.1 7.65333 128.196 7.87733 128.196 8.176V27.568C128.196 27.7813 128.207 28.0267 128.228 28.304C128.25 28.56 128.25 28.8053 128.228 29.04ZM119.748 24.432C119.94 24.3253 120.09 24.1973 120.196 24.048C120.303 23.8773 120.388 23.6853 120.452 23.472C120.516 23.1733 120.548 22.8747 120.548 22.576C120.548 22.5333 120.548 22.4907 120.548 22.448C120.57 22.384 120.58 22.3307 120.58 22.288V21.616C120.602 21.4453 120.602 21.264 120.58 21.072C120.58 20.8587 120.57 20.5813 120.548 20.24C120.527 20.1973 120.516 20.144 120.516 20.08L120.42 19.664C120.399 19.6213 120.378 19.5787 120.356 19.536C120.335 19.472 120.314 19.4187 120.292 19.376L120.132 19.184L120.068 19.12C120.026 19.0987 119.983 19.0667 119.94 19.024C119.876 19.0027 119.791 18.992 119.684 18.992H119.492C119.343 18.992 119.183 19.0027 119.012 19.024C118.863 19.024 118.703 19.024 118.532 19.024C118.468 19.024 118.394 19.024 118.308 19.024C118.223 19.0027 118.138 19.0027 118.052 19.024C117.882 19.1307 117.754 19.2693 117.668 19.44C117.647 19.44 117.636 19.4507 117.636 19.472C117.636 19.472 117.615 19.5147 117.572 19.6C117.551 19.664 117.53 19.728 117.508 19.792C117.487 19.856 117.466 19.92 117.444 19.984C117.444 20.0267 117.434 20.08 117.412 20.144C117.412 20.1867 117.412 20.2293 117.412 20.272C117.391 20.3573 117.37 20.4427 117.348 20.528C117.348 20.6133 117.348 20.6987 117.348 20.784C117.348 20.848 117.338 20.912 117.316 20.976C117.316 21.04 117.316 21.104 117.316 21.168C117.295 21.424 117.284 21.6907 117.284 21.968C117.306 22.2453 117.327 22.512 117.348 22.768C117.348 22.8107 117.348 22.8533 117.348 22.896C117.37 22.9387 117.38 22.9813 117.38 23.024L117.444 23.28C117.487 23.472 117.54 23.664 117.604 23.856C117.69 24.0267 117.807 24.176 117.956 24.304L118.116 24.4C118.33 24.528 118.543 24.592 118.756 24.592C118.97 24.592 119.13 24.5813 119.236 24.56C119.343 24.56 119.428 24.5493 119.492 24.528C119.578 24.4853 119.663 24.4533 119.748 24.432Z" fill="#F77600"/>
</svg>
