<svg width="150" height="42" viewBox="0 0 150 42" fill="none" xmlns="http://www.w3.org/2000/svg">
<path d="M24.3045 25.932C24.2565 26.004 24.1965 26.076 24.1245 26.148C24.0765 26.22 24.0285 26.28 23.9805 26.328C23.8845 26.424 23.8005 26.52 23.7285 26.616C23.6565 26.712 23.5725 26.808 23.4765 26.904C23.3805 27 23.2725 27.096 23.1525 27.192C23.0565 27.288 22.9485 27.396 22.8285 27.516C22.7805 27.564 22.7325 27.6 22.6845 27.624C22.6845 27.648 22.6605 27.672 22.6125 27.696C22.5885 27.72 22.5885 27.72 22.6125 27.696C22.5165 27.84 22.4565 27.96 22.4325 28.056C22.4085 28.08 22.3965 28.104 22.3965 28.128C22.3245 28.296 22.2525 28.464 22.1805 28.632C22.1325 28.8 22.0725 28.968 22.0005 29.136C22.0005 29.184 21.9885 29.22 21.9645 29.244C21.9405 29.364 21.8925 29.496 21.8205 29.64C21.7725 29.76 21.7245 29.88 21.6765 30L21.5685 30.216C21.4965 30.36 21.4125 30.492 21.3165 30.612C21.2445 30.756 21.1485 30.864 21.0285 30.936C21.0045 31.2 21.0285 31.536 21.1005 31.944C21.1965 32.352 21.2685 32.748 21.3165 33.132C21.3885 33.516 21.4005 33.828 21.3525 34.068C21.3045 34.308 21.1485 34.404 20.8845 34.356C20.5245 34.284 20.3565 34.032 20.3805 33.6C20.4045 33.192 20.4765 32.712 20.5965 32.16C20.7405 31.632 20.7885 31.188 20.7405 30.828C20.7405 30.828 20.7165 30.804 20.6685 30.756C20.6205 30.708 20.5965 30.684 20.5965 30.684C20.5965 30.66 20.5845 30.648 20.5605 30.648C20.5605 30.648 20.5605 30.636 20.5605 30.612L20.4525 30.432C20.4045 30.312 20.3565 30.204 20.3085 30.108C20.2605 30.012 20.2005 29.916 20.1285 29.82C20.1045 29.82 20.0925 29.808 20.0925 29.784L19.8765 29.892H19.8405C19.8165 30.228 19.7925 30.552 19.7685 30.864C19.7685 31.2 19.7565 31.536 19.7325 31.872C19.7085 32.088 19.6965 32.388 19.6965 32.772C19.6965 33.18 19.6965 33.504 19.6965 33.744C19.6965 34.008 19.6605 34.032 19.5885 33.816C19.5165 33.552 19.4685 33.288 19.4445 33.024C19.4445 32.784 19.4445 32.532 19.4445 32.268C19.3725 32.268 19.3365 32.256 19.3365 32.232C19.3125 32.064 19.3125 31.872 19.3365 31.656C19.3845 31.464 19.4205 31.26 19.4445 31.044V30.864C19.4445 30.84 19.4325 30.852 19.4085 30.9C19.3845 30.948 19.3605 30.972 19.3365 30.972C19.2885 30.924 19.2525 30.876 19.2285 30.828C19.2285 30.78 19.2165 30.744 19.1925 30.72C19.1685 30.696 19.1445 30.624 19.1205 30.504C19.0965 30.384 19.0605 30.264 19.0125 30.144C18.8685 30.24 18.8085 30.408 18.8325 30.648C18.8565 30.912 18.9045 31.188 18.9765 31.476C19.0485 31.788 19.0725 32.052 19.0485 32.268C19.0485 32.292 19.0245 32.304 18.9765 32.304C18.9525 32.328 18.9285 32.364 18.9045 32.412C18.8805 32.436 18.8565 32.484 18.8325 32.556C18.8085 32.628 18.7845 32.64 18.7605 32.592C18.7365 32.256 18.7245 31.92 18.7245 31.584C18.7245 31.248 18.7125 30.924 18.6885 30.612C18.6165 30.876 18.5445 31.164 18.4725 31.476C18.4245 31.788 18.3405 32.076 18.2205 32.34C18.1965 32.412 18.1605 32.484 18.1125 32.556C18.0645 32.652 18.0045 32.712 17.9325 32.736C17.8125 32.808 17.7045 32.772 17.6085 32.628C17.5605 32.58 17.5125 32.52 17.4645 32.448C17.4405 32.376 17.4165 32.328 17.3925 32.304C17.2245 32.088 17.0325 31.872 16.8165 31.656C16.6245 31.44 16.4565 31.212 16.3125 30.972C16.3125 30.948 16.3005 30.924 16.2765 30.9C16.2765 30.9 16.2765 30.888 16.2765 30.864C16.2525 30.864 16.2405 30.852 16.2405 30.828C16.2165 30.78 16.1925 30.72 16.1685 30.648C16.1445 30.6 16.1205 30.552 16.0965 30.504C16.0485 30.624 16.0245 30.756 16.0245 30.9C16.0485 31.068 16.0245 31.224 15.9525 31.368C15.9285 31.392 15.9045 31.356 15.8805 31.26C15.8565 31.188 15.8325 31.128 15.8085 31.08C15.7605 30.936 15.7365 30.816 15.7365 30.72C15.6885 30.816 15.6285 30.912 15.5565 31.008C15.5085 31.128 15.4365 31.236 15.3405 31.332C15.1725 31.5 15.0645 31.728 15.0165 32.016C14.9685 32.328 14.9565 32.652 14.9805 32.988C14.9325 32.988 14.8725 33.024 14.8005 33.096C14.7525 33.168 14.7045 33.24 14.6565 33.312C14.6085 33.384 14.5725 33.48 14.5485 33.6C14.5485 33.12 14.5485 32.676 14.5485 32.268C14.5725 31.86 14.5725 31.548 14.5485 31.332C14.4285 31.236 14.3085 31.116 14.1885 30.972C14.0925 30.852 14.0085 30.756 13.9365 30.684C13.9125 30.636 13.8645 30.576 13.7925 30.504C13.7685 30.504 13.7325 30.48 13.6845 30.432C13.5885 30.384 13.5285 30.42 13.5045 30.54C13.4805 30.756 13.4685 30.972 13.4685 31.188C13.4685 31.428 13.4445 31.656 13.3965 31.872C13.3725 31.92 13.3485 31.884 13.3245 31.764C13.3245 31.644 13.3125 31.56 13.2885 31.512L13.1805 30.36H13.1445C10.7445 30.312 8.6685 29.916 6.9165 29.172C5.1645 28.404 3.8205 27.276 2.8845 25.788C2.7405 25.596 2.6085 25.392 2.4885 25.176C2.3925 24.936 2.2965 24.696 2.2005 24.456C2.1285 24.312 2.0685 24.168 2.0205 24.024C1.9725 23.88 1.9245 23.736 1.8765 23.592C1.7805 23.448 1.6965 23.196 1.6245 22.836C1.5045 22.452 1.4205 21.972 1.3725 21.396C1.3245 20.82 1.3005 20.244 1.3005 19.668C1.3005 19.068 1.3005 18.588 1.3005 18.228C1.3005 18.012 1.3005 17.796 1.3005 17.58C1.3005 17.364 1.3125 17.148 1.3365 16.932V15.492C1.3365 15.012 1.3365 14.52 1.3365 14.016C1.3605 13.488 1.4205 12.996 1.5165 12.54C1.7325 11.22 2.1645 10.056 2.8125 9.048L3.0285 8.688C3.0525 8.664 3.0645 8.64 3.0645 8.616C3.0885 8.592 3.1125 8.568 3.1365 8.544C3.1845 8.472 3.2325 8.4 3.2805 8.328C3.3525 8.256 3.4125 8.196 3.4605 8.148C4.4925 6.948 5.8365 6.036 7.4925 5.412C9.1725 4.788 11.0805 4.464 13.2165 4.44H13.6845C13.9005 4.44 14.1285 4.44 14.3685 4.44C14.6085 4.44 14.8125 4.452 14.9805 4.476C15.0525 4.476 15.1245 4.488 15.1965 4.512C15.2685 4.512 15.3405 4.512 15.4125 4.512L16.1325 4.584C16.2525 4.608 16.3725 4.632 16.4925 4.656C16.6125 4.656 16.7205 4.668 16.8165 4.692C17.3685 4.764 17.9085 4.872 18.4365 5.016C18.4605 5.016 18.4725 5.028 18.4725 5.052C19.7925 5.388 20.9325 5.856 21.8925 6.456C22.8765 7.032 23.6925 7.704 24.3405 8.472C24.4605 8.616 24.5805 8.772 24.7005 8.94C24.8205 9.084 24.9285 9.252 25.0245 9.444C25.0245 9.468 25.0485 9.504 25.0965 9.552C25.1445 9.648 25.1925 9.756 25.2405 9.876C25.3125 9.996 25.3725 10.116 25.4205 10.236C25.6365 10.74 25.7805 11.268 25.8525 11.82V12C25.8765 12.072 25.8885 12.144 25.8885 12.216C25.8885 12.288 25.8885 12.36 25.8885 12.432V12.648C25.8885 12.696 25.8645 12.744 25.8165 12.792C25.8165 12.792 25.8045 12.804 25.7805 12.828C25.7805 12.828 25.7805 12.84 25.7805 12.864C25.7805 12.864 25.7565 12.888 25.7085 12.936C25.7565 12.936 25.7685 12.948 25.7445 12.972C25.7205 12.972 25.6725 13.008 25.6005 13.08C25.5765 13.104 25.5525 13.14 25.5285 13.188C25.5045 13.212 25.4805 13.248 25.4565 13.296C25.4325 13.32 25.4205 13.344 25.4205 13.368C25.4205 13.392 25.4085 13.416 25.3845 13.44C25.3605 13.464 25.3365 13.512 25.3125 13.584C25.3125 13.656 25.2885 13.68 25.2405 13.656C25.1925 13.656 25.1685 13.632 25.1685 13.584C25.1685 13.512 25.1565 13.452 25.1325 13.404C25.1085 13.404 25.0965 13.404 25.0965 13.404C25.0965 13.38 25.0965 13.368 25.0965 13.368C25.0725 13.344 25.0365 13.344 24.9885 13.368C24.9645 13.392 24.9285 13.416 24.8805 13.44C24.8325 13.488 24.8085 13.512 24.8085 13.512C24.7845 13.536 24.7365 13.548 24.6645 13.548C24.6165 13.548 24.5685 13.56 24.5205 13.584C24.3525 13.632 24.1725 13.692 23.9805 13.764C23.8125 13.836 23.6325 13.86 23.4405 13.836C23.2725 13.836 23.1165 13.812 22.9725 13.764C22.8525 13.692 22.7085 13.644 22.5405 13.62C22.4205 13.572 22.2885 13.56 22.1445 13.584C22.0245 13.608 21.8925 13.62 21.7485 13.62C21.7005 13.62 21.6525 13.62 21.6045 13.62C21.5565 13.596 21.5085 13.584 21.4605 13.584C21.3405 13.608 21.2205 13.68 21.1005 13.8C21.0045 13.896 20.9085 13.98 20.8125 14.052C20.7165 14.124 20.6085 14.172 20.4885 14.196C20.3685 14.22 20.2485 14.256 20.1285 14.304C20.0085 14.376 19.9005 14.472 19.8045 14.592C19.7085 14.688 19.6005 14.76 19.4805 14.808H24.9165C25.1085 14.808 25.3005 14.868 25.4925 14.988L25.7085 15.204C25.8285 15.372 25.8885 15.564 25.8885 15.78C25.8885 15.972 25.8885 16.164 25.8885 16.356V18.48C25.8885 18.912 25.8885 19.344 25.8885 19.776C25.9125 20.208 25.9125 20.64 25.8885 21.072C25.8645 21.672 25.7925 22.236 25.6725 22.764C25.5525 23.268 25.3965 23.76 25.2045 24.24L24.8805 24.96C24.7845 25.128 24.6885 25.296 24.5925 25.464C24.5205 25.632 24.4245 25.788 24.3045 25.932ZM13.5405 23.34H13.6485C14.1285 23.34 14.6085 23.268 15.0885 23.124C15.5925 22.956 15.9885 22.68 16.2765 22.296C16.3965 22.104 16.4805 21.924 16.5285 21.756C16.6005 21.564 16.6485 21.384 16.6725 21.216C16.6725 21.192 16.6725 21.156 16.6725 21.108C16.6965 21.06 16.7085 21.012 16.7085 20.964L16.6005 20.748C16.5285 20.772 16.4685 20.832 16.4205 20.928C16.3725 21.024 16.3245 21.096 16.2765 21.144C16.2045 21.24 16.1205 21.324 16.0245 21.396C15.9525 21.468 15.8685 21.54 15.7725 21.612C15.7245 21.636 15.6765 21.66 15.6285 21.684C15.5805 21.684 15.5325 21.684 15.4845 21.684C15.3165 21.732 15.1605 21.684 15.0165 21.54L14.8365 21.36C14.7405 21.24 14.6685 21.108 14.6205 20.964C14.5725 20.82 14.5125 20.688 14.4405 20.568V20.532C14.3205 20.46 14.2125 20.34 14.1165 20.172C14.1165 20.148 14.1045 20.136 14.0805 20.136C14.0805 20.112 14.0805 20.088 14.0805 20.064C14.0805 20.04 14.0685 20.016 14.0445 19.992C14.0445 19.968 14.0445 19.944 14.0445 19.92V19.884C14.0205 19.716 14.0085 19.548 14.0085 19.38C14.0325 19.212 14.0445 19.056 14.0445 18.912V17.076C14.0445 16.86 14.0325 16.632 14.0085 16.392C13.9845 16.128 13.9965 15.888 14.0445 15.672C14.0925 15.456 14.1525 15.3 14.2245 15.204C14.2725 15.156 14.2965 15.132 14.2965 15.132C14.4885 14.916 14.7285 14.808 15.0165 14.808H18.8685C18.7485 14.76 18.6285 14.7 18.5085 14.628C18.3885 14.556 18.2805 14.496 18.1845 14.448C17.8725 14.256 17.5605 14.088 17.2485 13.944C16.9365 13.776 16.6605 13.548 16.4205 13.26L16.2045 13.008C16.1805 12.984 16.1565 12.96 16.1325 12.936C16.1325 12.912 16.1205 12.888 16.0965 12.864L15.9885 12.756C15.9165 12.66 15.8445 12.564 15.7725 12.468C15.7005 12.372 15.6165 12.276 15.5205 12.18L15.3045 12L15.0525 12.252C15.0285 12.228 15.0165 12.192 15.0165 12.144C14.9445 12.168 14.8725 12.192 14.8005 12.216C14.7525 12.216 14.7045 12.192 14.6565 12.144C14.6805 12.312 14.6925 12.492 14.6925 12.684C14.7165 12.876 14.6565 12.972 14.5125 12.972C14.3445 12.972 14.2845 12.828 14.3325 12.54C14.4045 12.252 14.4165 12.024 14.3685 11.856C14.3685 11.832 14.3445 11.82 14.2965 11.82C14.2725 11.796 14.2485 11.808 14.2245 11.856C14.2005 12.024 14.1885 12.216 14.1885 12.432C14.1885 12.624 14.1525 12.816 14.0805 13.008C14.0565 13.032 14.0325 13.008 14.0085 12.936C13.9845 12.864 13.9605 12.804 13.9365 12.756L13.7925 12.396C13.7685 12.324 13.7445 12.252 13.7205 12.18C13.6965 12.084 13.6725 11.988 13.6485 11.892C13.5765 11.964 13.5045 12.024 13.4325 12.072C13.3845 12.12 13.3005 12.156 13.1805 12.18C13.1565 12.204 13.0965 12.228 13.0005 12.252C12.9045 12.252 12.8325 12.24 12.7845 12.216C12.7845 12.216 12.7725 12.216 12.7485 12.216C12.7485 12.216 12.7485 12.204 12.7485 12.18C12.7005 12.132 12.6765 12.084 12.6765 12.036C12.6765 11.988 12.6645 11.952 12.6405 11.928C12.6405 11.88 12.6405 11.844 12.6405 11.82C12.5445 11.82 12.4605 11.832 12.3885 11.856C12.2925 12.024 12.2565 12.132 12.2805 12.18C12.3285 12.204 12.2805 12.3 12.1365 12.468C11.9925 12.636 11.8725 12.624 11.7765 12.432C11.7045 12.24 11.6205 12.132 11.5245 12.108C11.5245 12.108 11.4885 12.144 11.4165 12.216L11.3805 12.252L11.2005 12.468C11.1765 12.492 11.1645 12.516 11.1645 12.54C11.1645 12.564 11.1525 12.588 11.1285 12.612C10.9605 12.924 10.8525 13.26 10.8045 13.62C10.7565 13.956 10.7325 14.292 10.7325 14.628C10.7325 14.748 10.7205 14.904 10.6965 15.096C10.6965 15.264 10.6965 15.444 10.6965 15.636V18.66C10.6965 18.9 10.6965 19.128 10.6965 19.344C10.6965 19.536 10.7085 19.704 10.7325 19.848C10.7325 20.016 10.7325 20.184 10.7325 20.352C10.7325 20.496 10.7445 20.652 10.7685 20.82C10.8165 21.06 10.8765 21.312 10.9485 21.576C11.0205 21.816 11.1285 22.044 11.2725 22.26C11.4645 22.572 11.7165 22.812 12.0285 22.98C12.3405 23.148 12.6645 23.256 13.0005 23.304C13.0965 23.304 13.1805 23.316 13.2525 23.34C13.3485 23.34 13.4445 23.34 13.5405 23.34ZM14.9805 32.988C15.0765 33.012 15.1365 33.156 15.1605 33.42C15.1845 33.684 15.1845 33.984 15.1605 34.32C15.1365 34.08 15.1005 33.852 15.0525 33.636C15.0285 33.42 15.0045 33.204 14.9805 32.988ZM14.6565 37.272C14.7045 37.512 14.7045 37.524 14.6565 37.308C14.6085 37.116 14.5485 36.792 14.4765 36.336C14.4285 35.904 14.3925 35.424 14.3685 34.896C14.3685 34.392 14.4285 33.96 14.5485 33.6C14.5245 34.32 14.5125 35.028 14.5125 35.724C14.5125 36.42 14.5605 36.936 14.6565 37.272ZM14.9445 36.984C14.8965 37.2 14.8845 37.176 14.9085 36.912C14.9565 36.648 15.0045 36.264 15.0525 35.76C15.1245 35.256 15.1605 34.776 15.1605 34.32C15.2565 34.848 15.3045 35.352 15.3045 35.832C15.3285 36.336 15.2085 36.72 14.9445 36.984ZM49.178 20.064C49.202 20.448 49.202 20.832 49.178 21.216C49.178 21.6 49.166 21.972 49.142 22.332C49.094 23.076 48.986 23.772 48.818 24.42C48.65 25.044 48.41 25.62 48.098 26.148C48.002 26.316 47.906 26.484 47.81 26.652C47.714 26.82 47.606 26.988 47.486 27.156C47.366 27.3 47.234 27.432 47.09 27.552C47.09 27.576 47.078 27.6 47.054 27.624C46.958 27.768 46.838 27.888 46.694 27.984C46.67 28.008 46.646 28.032 46.622 28.056C46.598 28.08 46.562 28.116 46.514 28.164C46.49 28.188 46.466 28.212 46.442 28.236C46.418 28.26 46.394 28.284 46.37 28.308L46.154 28.776C46.154 28.872 46.154 28.968 46.154 29.064C46.154 29.136 46.142 29.22 46.118 29.316C46.094 29.484 46.094 29.712 46.118 30C46.142 30.264 46.094 30.348 45.974 30.252C45.902 30.18 45.854 30.096 45.83 30C45.83 29.88 45.83 29.772 45.83 29.676C45.83 29.724 45.806 29.772 45.758 29.82C45.734 29.892 45.686 29.964 45.614 30.036C45.566 30.132 45.494 30.192 45.398 30.216C45.23 30.288 45.086 30.228 44.966 30.036C44.87 29.868 44.798 29.736 44.75 29.64C44.75 29.616 44.738 29.592 44.714 29.568C44.546 29.88 44.474 30.228 44.498 30.612C44.522 31.02 44.51 31.416 44.462 31.8C44.462 31.896 44.45 32.004 44.426 32.124C44.402 32.268 44.378 32.4 44.354 32.52C44.33 32.664 44.27 32.796 44.174 32.916C44.174 32.988 44.126 33.024 44.03 33.024C43.934 32.976 43.886 32.916 43.886 32.844C43.838 32.436 43.814 32.016 43.814 31.584C43.814 31.152 43.79 30.732 43.742 30.324C43.742 30.324 43.73 30.312 43.706 30.288C43.706 30.288 43.694 30.288 43.67 30.288C43.598 30.312 43.526 30.348 43.454 30.396C43.382 30.444 43.322 30.492 43.274 30.54C43.106 30.708 42.962 30.912 42.842 31.152C42.77 31.296 42.698 31.44 42.626 31.584C42.578 31.728 42.518 31.86 42.446 31.98C42.422 32.004 42.386 32.052 42.338 32.124C42.314 32.22 42.302 32.256 42.302 32.232C42.254 31.968 42.23 31.704 42.23 31.44C42.23 31.176 42.206 30.924 42.158 30.684C42.206 30.684 42.134 30.672 41.942 30.648C41.774 30.648 41.702 30.66 41.726 30.684C41.678 31.068 41.654 31.452 41.654 31.836C41.654 32.22 41.63 32.604 41.582 32.988C41.582 33.012 41.534 33.06 41.438 33.132C41.366 33.204 41.318 33.252 41.294 33.276C41.27 33.3 41.234 33.312 41.186 33.312C41.162 33.336 41.15 33.336 41.15 33.312C41.102 32.904 41.078 32.484 41.078 32.052C41.078 31.644 41.042 31.236 40.97 30.828C40.898 30.852 40.838 30.888 40.79 30.936C40.742 30.984 40.718 31.008 40.718 31.008C40.694 31.032 40.67 31.068 40.646 31.116C40.646 31.188 40.622 31.248 40.574 31.296C40.55 31.296 40.49 31.248 40.394 31.152C40.37 31.104 40.346 31.056 40.322 31.008C40.322 30.96 40.298 30.924 40.25 30.9C40.25 30.876 40.238 30.864 40.214 30.864C40.19 30.84 40.178 30.828 40.178 30.828C40.178 30.852 40.166 30.852 40.142 30.828H39.926C39.926 30.924 39.926 31.02 39.926 31.116C39.926 31.212 39.902 31.32 39.854 31.44C39.854 31.44 39.758 31.332 39.566 31.116C39.446 30.996 39.386 30.936 39.386 30.936C39.386 30.96 39.35 30.96 39.278 30.936C39.182 30.936 39.134 30.924 39.134 30.9C39.11 31.236 39.086 31.56 39.062 31.872C39.062 32.208 39.038 32.544 38.99 32.88C38.99 32.928 38.966 32.904 38.918 32.808C38.894 32.712 38.87 32.64 38.846 32.592C38.822 32.52 38.798 32.448 38.774 32.376C38.75 32.328 38.726 32.268 38.702 32.196C38.63 31.884 38.57 31.572 38.522 31.26C38.498 30.972 38.462 30.672 38.414 30.36H38.198C34.934 30.288 32.474 29.532 30.818 28.092L30.602 27.876C29.186 26.532 28.406 24.684 28.262 22.332C28.19 21.204 28.19 20.076 28.262 18.948C28.454 16.284 29.462 14.28 31.286 12.936C33.134 11.592 35.654 10.92 38.846 10.92H39.17C39.506 10.92 39.842 10.932 40.178 10.956C40.514 10.98 40.838 11.016 41.15 11.064C41.198 11.064 41.234 11.076 41.258 11.1C43.73 11.46 45.71 12.396 47.198 13.908C47.246 13.956 47.306 14.04 47.378 14.16C47.474 14.256 47.534 14.328 47.558 14.376C48.23 15.264 48.686 16.26 48.926 17.364C48.926 17.388 48.926 17.412 48.926 17.436C48.95 17.46 48.962 17.484 48.962 17.508C49.058 17.916 49.118 18.348 49.142 18.804C49.166 19.236 49.178 19.656 49.178 20.064ZM37.73 24.348C37.802 24.396 37.886 24.444 37.982 24.492C38.246 24.564 38.45 24.6 38.594 24.6C38.738 24.6 38.882 24.588 39.026 24.564H39.242C39.338 24.516 39.422 24.48 39.494 24.456C39.59 24.408 39.674 24.36 39.746 24.312C39.938 24.12 40.058 23.892 40.106 23.628C40.178 23.364 40.226 23.112 40.25 22.872C40.274 22.728 40.286 22.572 40.286 22.404C40.31 22.236 40.322 22.068 40.322 21.9C40.346 21.564 40.358 21.168 40.358 20.712C40.358 20.256 40.346 19.848 40.322 19.488C40.322 19.368 40.322 19.248 40.322 19.128C40.322 19.008 40.31 18.9 40.286 18.804C40.286 18.708 40.274 18.624 40.25 18.552C40.25 18.456 40.25 18.36 40.25 18.264C40.178 17.64 40.01 17.22 39.746 17.004C39.65 16.908 39.578 16.86 39.53 16.86C39.506 16.836 39.47 16.824 39.422 16.824C39.398 16.824 39.374 16.824 39.35 16.824C39.326 16.8 39.302 16.8 39.278 16.824C39.254 16.848 39.23 16.908 39.206 17.004C39.206 17.076 39.182 17.136 39.134 17.184C39.11 17.232 39.038 17.268 38.918 17.292C38.822 17.292 38.75 17.28 38.702 17.256C38.558 17.232 38.426 17.16 38.306 17.04H38.09C38.066 17.016 38.042 16.992 38.018 16.968C37.994 16.92 37.958 16.884 37.91 16.86C37.838 16.86 37.766 16.896 37.694 16.968C37.526 17.112 37.406 17.316 37.334 17.58C37.262 17.82 37.202 18.108 37.154 18.444C37.13 18.516 37.118 18.612 37.118 18.732C37.118 18.804 37.106 18.888 37.082 18.984C37.082 19.056 37.082 19.14 37.082 19.236C37.058 19.428 37.046 19.656 37.046 19.92C37.046 20.184 37.046 20.448 37.046 20.712C37.046 20.88 37.046 21.048 37.046 21.216C37.07 21.36 37.082 21.516 37.082 21.684C37.082 21.852 37.082 22.02 37.082 22.188C37.082 22.356 37.094 22.5 37.118 22.62C37.166 23.052 37.214 23.388 37.262 23.628C37.334 23.868 37.49 24.108 37.73 24.348ZM79.6331 5.7C79.6331 5.868 79.6091 6.036 79.5611 6.204C79.5371 6.372 79.5131 6.552 79.4891 6.744L79.2731 8.112C79.2491 8.544 79.2011 8.988 79.1291 9.444C79.0811 9.9 79.0091 10.308 78.9131 10.668L78.0491 16.644L77.9411 17.616V17.724C77.9171 17.964 77.8931 18.204 77.8691 18.444C77.8451 18.684 77.8091 18.924 77.7611 19.164C77.7371 19.524 77.7011 19.896 77.6531 20.28C77.6051 20.64 77.5571 20.988 77.5091 21.324C77.4131 22.236 77.3051 23.028 77.1851 23.7C77.0891 24.348 76.9811 24.756 76.8611 24.924C76.8611 24.972 76.8491 25.032 76.8251 25.104C76.8251 25.152 76.8251 25.2 76.8251 25.248C76.7771 25.56 76.7291 25.86 76.6811 26.148C76.6571 26.436 76.6211 26.7 76.5731 26.94C76.5731 26.964 76.5611 27 76.5371 27.048C76.5371 27.072 76.5371 27.108 76.5371 27.156L76.5011 27.408C76.4771 27.624 76.4531 27.852 76.4291 28.092C76.4051 28.332 76.3571 28.56 76.2851 28.776C76.2851 28.848 76.2611 28.932 76.2131 29.028C76.1891 29.076 76.1651 29.124 76.1411 29.172C76.1171 29.22 76.0931 29.268 76.0691 29.316C76.0451 29.34 76.0211 29.376 75.9971 29.424C75.9731 29.448 75.9371 29.472 75.8891 29.496C75.7931 29.592 75.7091 29.664 75.6371 29.712C75.5651 29.808 75.5171 29.904 75.4931 30C75.4931 30.072 75.4931 30.108 75.4931 30.108C75.4691 30.132 75.4571 30.168 75.4571 30.216C75.4571 30.288 75.4331 30.36 75.3851 30.432C75.3611 30.528 75.3251 30.612 75.2771 30.684C75.2291 30.78 75.1811 30.888 75.1331 31.008C75.1091 31.104 75.0611 31.2 74.9891 31.296C74.9411 31.392 74.8931 31.5 74.8451 31.62L74.7371 31.836C74.7131 31.86 74.6891 31.884 74.6651 31.908C74.6651 31.932 74.6531 31.956 74.6291 31.98C74.5331 32.172 74.4011 32.34 74.2331 32.484C74.0651 32.628 73.8971 32.784 73.7291 32.952L73.5851 33.168C73.4651 33.336 73.3571 33.528 73.2611 33.744C73.1651 33.96 73.0571 34.164 72.9371 34.356C72.9131 34.38 72.8771 34.428 72.8291 34.5C72.7811 34.596 72.7211 34.644 72.6491 34.644C72.5531 34.644 72.4571 34.56 72.3611 34.392C72.3371 34.344 72.3131 34.296 72.2891 34.248C72.2651 34.2 72.2411 34.152 72.2171 34.104C72.1211 33.888 72.0371 33.684 71.9651 33.492C71.8931 33.3 71.8331 33.132 71.7851 32.988C71.7611 32.916 71.7251 32.856 71.6771 32.808C71.6291 32.76 71.6051 32.736 71.6051 32.736C71.6291 32.76 71.6291 32.748 71.6051 32.7C71.5811 32.676 71.5571 32.652 71.5331 32.628C71.5331 32.628 71.5091 32.604 71.4611 32.556C71.4371 32.556 71.4251 32.544 71.4251 32.52C71.4251 32.52 71.4131 32.52 71.3891 32.52C71.3651 32.736 71.3771 33.156 71.4251 33.78C71.4731 34.428 71.5211 35.136 71.5691 35.904C71.6411 36.696 71.6891 37.44 71.7131 38.136C71.7371 38.832 71.7131 39.36 71.6411 39.72C71.5691 40.104 71.4251 40.188 71.2091 39.972C70.9451 39.708 70.7891 39.216 70.7411 38.496C70.6931 37.8 70.7051 37.02 70.7771 36.156C70.8491 35.316 70.9211 34.536 70.9931 33.816C71.0651 33.12 71.0891 32.628 71.0651 32.34C71.0171 32.292 70.9931 32.268 70.9931 32.268C70.9931 32.268 70.9811 32.268 70.9571 32.268C70.9571 32.268 70.9571 32.256 70.9571 32.232C70.9331 32.208 70.8971 32.16 70.8491 32.088C70.8251 32.04 70.8011 32.004 70.7771 31.98C70.6571 31.668 70.5611 31.392 70.4891 31.152C70.4651 31.032 70.4291 30.9 70.3811 30.756C70.3331 30.612 70.2851 30.468 70.2371 30.324C70.2131 30.3 70.2011 30.24 70.2011 30.144C70.1771 30.168 70.1411 30.204 70.0931 30.252C70.0691 30.3 70.0331 30.3 69.9851 30.252C69.9611 30.276 69.9491 30.288 69.9491 30.288C69.9491 30.312 69.9491 30.324 69.9491 30.324C69.9011 30.42 69.8531 30.48 69.8051 30.504C69.7571 30.552 69.7091 30.576 69.6611 30.576C69.6131 30.672 69.5891 30.78 69.5891 30.9C69.5891 31.02 69.5651 31.128 69.5171 31.224C69.4931 31.248 69.4571 31.248 69.4091 31.224C69.3851 31.224 69.3731 31.212 69.3731 31.188C69.3251 31.068 69.3011 30.936 69.3011 30.792C69.3011 30.672 69.2771 30.54 69.2291 30.396C69.2051 30.396 69.1931 30.384 69.1931 30.36C69.1931 30.36 69.1811 30.36 69.1571 30.36C69.1571 30.336 69.1451 30.324 69.1211 30.324C69.0491 30.276 68.9771 30.216 68.9051 30.144C68.8571 30.096 68.8091 30.048 68.7611 30C68.7371 29.952 68.7011 29.904 68.6531 29.856C68.6051 29.808 68.5571 29.76 68.5091 29.712C68.4851 29.664 68.4491 29.616 68.4011 29.568C68.3531 29.52 68.3051 29.472 68.2571 29.424C68.2091 29.352 68.1611 29.268 68.1131 29.172C68.0411 29.052 67.9691 28.92 67.8971 28.776C67.8491 28.632 67.8011 28.488 67.7531 28.344L67.6451 28.056C67.6451 28.032 67.6331 28.02 67.6091 28.02C67.6091 28.02 67.6091 28.008 67.6091 27.984C67.5611 27.888 67.5371 27.816 67.5371 27.768C67.5131 27.744 67.5011 27.708 67.5011 27.66L67.3931 27.444C67.2731 27.18 67.1771 26.94 67.1051 26.724C67.0091 26.508 66.9131 26.28 66.8171 26.04C66.7211 25.776 66.6251 25.524 66.5291 25.284L66.3851 24.888C66.2171 24.504 66.0491 24.12 65.8811 23.736C65.7371 23.352 65.5931 22.968 65.4491 22.584L65.3411 22.26L65.2331 22.044L65.1251 21.792C65.1251 21.768 65.1251 21.732 65.1251 21.684C65.1251 21.612 65.1011 21.648 65.0531 21.792C65.0291 21.816 65.0051 21.852 64.9811 21.9C64.9811 21.948 64.9691 21.996 64.9451 22.044L64.6931 22.656L64.3691 23.484C64.3691 23.484 64.3691 23.496 64.3691 23.52C64.3691 23.52 64.3571 23.52 64.3331 23.52C64.2611 23.736 64.1771 23.952 64.0811 24.168C64.0091 24.384 63.9251 24.6 63.8291 24.816C63.8291 24.84 63.8171 24.852 63.7931 24.852C63.7931 24.852 63.7931 24.864 63.7931 24.888L63.5771 25.428C63.4811 25.716 63.3731 26.004 63.2531 26.292C63.1571 26.556 63.0491 26.82 62.9291 27.084C62.8091 27.468 62.6771 27.84 62.5331 28.2C62.4131 28.56 62.2691 28.872 62.1011 29.136C62.0771 29.16 62.0291 29.22 61.9571 29.316C61.9091 29.412 61.8971 29.448 61.9211 29.424C61.8491 29.544 61.7291 29.664 61.5611 29.784C61.5131 30 61.4651 30.216 61.4171 30.432C61.3691 30.672 61.3091 30.888 61.2371 31.08C61.1891 31.248 61.1171 31.416 61.0211 31.584C60.9491 31.776 60.8651 31.968 60.7691 32.16L60.4091 32.952C60.3131 33.192 60.2171 33.432 60.1211 33.672C60.0491 33.936 59.9651 34.2 59.8691 34.464C59.8451 34.512 59.8211 34.56 59.7971 34.608C59.7731 34.68 59.7491 34.74 59.7251 34.788C59.7251 34.812 59.7011 34.872 59.6531 34.968C59.6531 35.04 59.6291 35.1 59.5811 35.148C59.5331 35.196 59.5091 35.22 59.5091 35.22L59.4731 35.256C59.4731 35.28 59.4611 35.292 59.4371 35.292C59.4131 35.292 59.4011 35.292 59.4011 35.292C59.4011 35.316 59.3891 35.328 59.3651 35.328C59.3411 35.592 59.3651 35.928 59.4371 36.336C59.5331 36.768 59.6051 37.188 59.6531 37.596C59.7251 38.004 59.7371 38.316 59.6891 38.532C59.6411 38.772 59.4851 38.844 59.2211 38.748C58.8611 38.604 58.6811 38.316 58.6811 37.884C58.7051 37.476 58.7891 37.02 58.9331 36.516C59.0771 36.036 59.1371 35.616 59.1131 35.256L58.9331 34.968V34.932C58.8851 34.884 58.8611 34.86 58.8611 34.86C58.8131 34.74 58.7531 34.608 58.6811 34.464C58.6331 34.344 58.5731 34.224 58.5011 34.104L58.3571 33.96C58.3091 33.888 58.2371 33.828 58.1411 33.78C58.0691 33.732 58.0091 33.672 57.9611 33.6C57.9611 33.6 57.9371 33.576 57.8891 33.528C57.8651 33.504 57.8411 33.48 57.8171 33.456C57.7931 33.432 57.7571 33.408 57.7091 33.384C57.6611 33.288 57.6371 33.24 57.6371 33.24C57.3971 32.928 57.2171 32.58 57.0971 32.196C57.0011 31.836 56.8931 31.5 56.7731 31.188L56.6651 30.936C56.6411 30.864 56.6051 30.78 56.5571 30.684C56.5091 30.612 56.4611 30.54 56.4131 30.468C56.3651 30.42 56.3291 30.372 56.3051 30.324C56.2811 30.276 56.2571 30.24 56.2331 30.216C56.2091 30.192 56.1731 30.168 56.1251 30.144L55.9451 30.072C55.9211 30.072 55.8971 30.06 55.8731 30.036C55.8491 30.036 55.8131 30.036 55.7651 30.036C55.6931 30.132 55.6571 30.324 55.6571 30.612C55.6811 30.924 55.7171 31.224 55.7651 31.512C55.8131 31.8 55.8251 31.992 55.8011 32.088C55.8011 32.208 55.7891 32.376 55.7651 32.592C55.7411 32.808 55.7171 32.988 55.6931 33.132C55.6931 33.276 55.6811 33.288 55.6571 33.168C55.5611 32.76 55.5251 32.328 55.5491 31.872C55.5971 31.44 55.5851 31.008 55.5131 30.576L55.4051 30.216C55.3811 30.168 55.3691 30.12 55.3691 30.072C55.3691 30.048 55.3571 30.024 55.3331 30C55.2851 30 55.2491 29.988 55.2251 29.964C55.1531 29.964 55.0451 29.94 54.9011 29.892C54.8771 29.892 54.8531 29.892 54.8291 29.892C54.8291 29.868 54.8171 29.856 54.7931 29.856C54.7931 29.856 54.7811 29.856 54.7571 29.856C54.7571 29.856 54.7571 29.844 54.7571 29.82C54.6851 29.82 54.6371 29.808 54.6131 29.784C54.4931 29.712 54.3731 29.604 54.2531 29.46C54.1571 29.316 54.0731 29.184 54.0011 29.064C53.9291 28.92 53.8811 28.752 53.8571 28.56C53.8331 28.416 53.8091 28.272 53.7851 28.128C53.7611 27.984 53.7371 27.84 53.7131 27.696L53.6771 27.3C53.6531 27.156 53.6291 27.012 53.6051 26.868C53.5811 26.724 53.5571 26.58 53.5331 26.436L53.3891 25.356C53.2691 25.164 53.1491 24.696 53.0291 23.952C52.9091 23.208 52.7891 22.332 52.6691 21.324C52.6211 21.036 52.5731 20.652 52.5251 20.172C52.4771 19.692 52.4291 19.188 52.3811 18.66C52.3571 18.516 52.3331 18.372 52.3091 18.228C52.3091 18.084 52.3091 17.94 52.3091 17.796L51.2651 10.632C51.2651 10.608 51.2531 10.596 51.2291 10.596C51.2291 10.596 51.2291 10.584 51.2291 10.56C51.2051 10.392 51.1811 10.224 51.1571 10.056C51.1331 9.864 51.1091 9.684 51.0851 9.516L50.8691 8.004L50.6171 6.132C50.5931 6.084 50.5811 6.036 50.5811 5.988L50.5451 5.592C50.5451 5.376 50.6171 5.196 50.7611 5.052C50.9291 4.884 51.1211 4.8 51.3371 4.8H57.3131C57.6011 4.8 57.9251 4.8 58.2851 4.8C58.6691 4.8 58.9571 4.932 59.1491 5.196C59.1971 5.268 59.2331 5.34 59.2571 5.412C59.2811 5.484 59.2931 5.556 59.2931 5.628C59.3171 5.652 59.3291 5.7 59.3291 5.772L59.4011 6.312C59.4011 6.36 59.4011 6.408 59.4011 6.456C59.4251 6.504 59.4371 6.552 59.4371 6.6L59.5091 7.248C59.5571 7.488 59.5931 7.74 59.6171 8.004C59.6411 8.268 59.6651 8.544 59.6891 8.832L59.9771 11.136C60.0251 11.472 60.0731 11.856 60.1211 12.288C60.1931 12.696 60.2411 13.104 60.2651 13.512L60.5171 15.744C60.5411 15.744 60.5651 15.744 60.5891 15.744C60.6131 15.648 60.6251 15.612 60.6251 15.636C60.6731 15.492 60.7211 15.348 60.7691 15.204C60.8411 15.036 60.9011 14.868 60.9491 14.7C60.9731 14.628 60.9971 14.568 61.0211 14.52C61.0451 14.448 61.0691 14.376 61.0931 14.304L61.8851 11.856C61.9811 11.448 62.1251 11.112 62.3171 10.848C62.3891 10.752 62.4731 10.668 62.5691 10.596C62.7131 10.452 62.9411 10.38 63.2531 10.38H63.6851C64.2371 10.38 64.7771 10.368 65.3051 10.344C65.8571 10.32 66.3971 10.332 66.9251 10.38C67.3571 10.38 67.6571 10.512 67.8251 10.776C67.9931 11.04 68.1011 11.256 68.1491 11.424L69.5531 15.636C69.5531 15.708 69.5771 15.792 69.6251 15.888C69.6731 15.96 69.6731 15.912 69.6251 15.744C69.6491 15.696 69.6611 15.636 69.6611 15.564C69.6611 15.492 69.6731 15.432 69.6971 15.384C69.6971 15.24 69.6971 15.108 69.6971 14.988C69.7211 14.844 69.7451 14.7 69.7691 14.556C69.8171 14.364 69.8411 14.184 69.8411 14.016C69.8651 13.824 69.8891 13.632 69.9131 13.44L70.0211 12.504C70.0691 12.048 70.1171 11.604 70.1651 11.172C70.2131 10.74 70.2611 10.38 70.3091 10.092C70.3571 9.66 70.4051 9.264 70.4531 8.904C70.5011 8.544 70.5371 8.256 70.5611 8.04L70.7771 6.348V6.168C70.8011 6 70.8251 5.844 70.8491 5.7C70.8731 5.532 70.9211 5.388 70.9931 5.268C71.0651 5.124 71.1731 5.016 71.3171 4.944C71.5091 4.848 71.7491 4.8 72.0371 4.8C72.1811 4.776 72.3251 4.776 72.4691 4.8C72.6131 4.8 72.7451 4.8 72.8651 4.8H78.2651C78.3851 4.8 78.5051 4.8 78.6251 4.8C78.7691 4.776 78.9011 4.776 79.0211 4.8C79.2371 4.872 79.4051 5.004 79.5251 5.196C79.5251 5.196 79.5251 5.208 79.5251 5.232C79.5491 5.232 79.5611 5.244 79.5611 5.268C79.5851 5.34 79.5971 5.4 79.5971 5.448C79.6211 5.496 79.6331 5.58 79.6331 5.7ZM65.1251 21.792C65.1251 21.84 65.1251 21.84 65.1251 21.792V21.792ZM101.983 20.064C102.007 20.448 102.007 20.832 101.983 21.216C101.983 21.6 101.971 21.972 101.947 22.332C101.899 23.076 101.791 23.772 101.623 24.42C101.455 25.044 101.215 25.62 100.903 26.148C100.807 26.316 100.711 26.484 100.615 26.652C100.519 26.82 100.411 26.988 100.291 27.156C100.171 27.3 100.039 27.432 99.8947 27.552C99.8947 27.576 99.8827 27.6 99.8587 27.624C99.7627 27.768 99.6427 27.888 99.4987 27.984C99.4747 28.008 99.4507 28.032 99.4267 28.056C99.4027 28.08 99.3667 28.116 99.3187 28.164C99.2947 28.188 99.2707 28.212 99.2467 28.236C99.2227 28.26 99.1987 28.284 99.1747 28.308L98.9587 28.776C98.9587 28.872 98.9587 28.968 98.9587 29.064C98.9587 29.136 98.9467 29.22 98.9227 29.316C98.8987 29.484 98.8987 29.712 98.9227 30C98.9467 30.264 98.8987 30.348 98.7787 30.252C98.7067 30.18 98.6587 30.096 98.6347 30C98.6347 29.88 98.6347 29.772 98.6347 29.676C98.6347 29.724 98.6107 29.772 98.5627 29.82C98.5387 29.892 98.4907 29.964 98.4187 30.036C98.3707 30.132 98.2987 30.192 98.2027 30.216C98.0347 30.288 97.8907 30.228 97.7707 30.036C97.6747 29.868 97.6027 29.736 97.5547 29.64C97.5547 29.616 97.5427 29.592 97.5187 29.568C97.3507 29.88 97.2787 30.228 97.3027 30.612C97.3267 31.02 97.3147 31.416 97.2667 31.8C97.2667 31.896 97.2547 32.004 97.2307 32.124C97.2067 32.268 97.1827 32.4 97.1587 32.52C97.1347 32.664 97.0747 32.796 96.9787 32.916C96.9787 32.988 96.9307 33.024 96.8347 33.024C96.7387 32.976 96.6907 32.916 96.6907 32.844C96.6427 32.436 96.6187 32.016 96.6187 31.584C96.6187 31.152 96.5947 30.732 96.5467 30.324C96.5467 30.324 96.5347 30.312 96.5107 30.288C96.5107 30.288 96.4987 30.288 96.4747 30.288C96.4027 30.312 96.3307 30.348 96.2587 30.396C96.1867 30.444 96.1267 30.492 96.0787 30.54C95.9107 30.708 95.7667 30.912 95.6467 31.152C95.5747 31.296 95.5027 31.44 95.4307 31.584C95.3827 31.728 95.3227 31.86 95.2507 31.98C95.2267 32.004 95.1907 32.052 95.1427 32.124C95.1187 32.22 95.1067 32.256 95.1067 32.232C95.0587 31.968 95.0347 31.704 95.0347 31.44C95.0347 31.176 95.0107 30.924 94.9627 30.684C95.0107 30.684 94.9387 30.672 94.7467 30.648C94.5787 30.648 94.5067 30.66 94.5307 30.684C94.4827 31.068 94.4587 31.452 94.4587 31.836C94.4587 32.22 94.4347 32.604 94.3867 32.988C94.3867 33.012 94.3387 33.06 94.2427 33.132C94.1707 33.204 94.1227 33.252 94.0987 33.276C94.0747 33.3 94.0387 33.312 93.9907 33.312C93.9667 33.336 93.9547 33.336 93.9547 33.312C93.9067 32.904 93.8827 32.484 93.8827 32.052C93.8827 31.644 93.8467 31.236 93.7747 30.828C93.7027 30.852 93.6427 30.888 93.5947 30.936C93.5467 30.984 93.5227 31.008 93.5227 31.008C93.4987 31.032 93.4747 31.068 93.4507 31.116C93.4507 31.188 93.4267 31.248 93.3787 31.296C93.3547 31.296 93.2947 31.248 93.1987 31.152C93.1747 31.104 93.1507 31.056 93.1267 31.008C93.1267 30.96 93.1027 30.924 93.0547 30.9C93.0547 30.876 93.0427 30.864 93.0187 30.864C92.9947 30.84 92.9827 30.828 92.9827 30.828C92.9827 30.852 92.9707 30.852 92.9467 30.828H92.7307C92.7307 30.924 92.7307 31.02 92.7307 31.116C92.7307 31.212 92.7067 31.32 92.6587 31.44C92.6587 31.44 92.5627 31.332 92.3707 31.116C92.2507 30.996 92.1907 30.936 92.1907 30.936C92.1907 30.96 92.1547 30.96 92.0827 30.936C91.9867 30.936 91.9387 30.924 91.9387 30.9C91.9147 31.236 91.8907 31.56 91.8667 31.872C91.8667 32.208 91.8427 32.544 91.7947 32.88C91.7947 32.928 91.7707 32.904 91.7227 32.808C91.6987 32.712 91.6747 32.64 91.6507 32.592C91.6267 32.52 91.6027 32.448 91.5787 32.376C91.5547 32.328 91.5307 32.268 91.5067 32.196C91.4347 31.884 91.3747 31.572 91.3267 31.26C91.3027 30.972 91.2667 30.672 91.2187 30.36H91.0027C87.7387 30.288 85.2787 29.532 83.6227 28.092L83.4067 27.876C81.9907 26.532 81.2107 24.684 81.0667 22.332C80.9947 21.204 80.9947 20.076 81.0667 18.948C81.2587 16.284 82.2667 14.28 84.0907 12.936C85.9387 11.592 88.4587 10.92 91.6507 10.92H91.9747C92.3107 10.92 92.6467 10.932 92.9827 10.956C93.3187 10.98 93.6427 11.016 93.9547 11.064C94.0027 11.064 94.0387 11.076 94.0627 11.1C96.5347 11.46 98.5147 12.396 100.003 13.908C100.051 13.956 100.111 14.04 100.183 14.16C100.279 14.256 100.339 14.328 100.363 14.376C101.035 15.264 101.491 16.26 101.731 17.364C101.731 17.388 101.731 17.412 101.731 17.436C101.755 17.46 101.767 17.484 101.767 17.508C101.863 17.916 101.923 18.348 101.947 18.804C101.971 19.236 101.983 19.656 101.983 20.064ZM90.5347 24.348C90.6067 24.396 90.6907 24.444 90.7867 24.492C91.0507 24.564 91.2547 24.6 91.3987 24.6C91.5427 24.6 91.6867 24.588 91.8307 24.564H92.0467C92.1427 24.516 92.2267 24.48 92.2987 24.456C92.3947 24.408 92.4787 24.36 92.5507 24.312C92.7427 24.12 92.8627 23.892 92.9107 23.628C92.9827 23.364 93.0307 23.112 93.0547 22.872C93.0787 22.728 93.0907 22.572 93.0907 22.404C93.1147 22.236 93.1267 22.068 93.1267 21.9C93.1507 21.564 93.1627 21.168 93.1627 20.712C93.1627 20.256 93.1507 19.848 93.1267 19.488C93.1267 19.368 93.1267 19.248 93.1267 19.128C93.1267 19.008 93.1147 18.9 93.0907 18.804C93.0907 18.708 93.0787 18.624 93.0547 18.552C93.0547 18.456 93.0547 18.36 93.0547 18.264C92.9827 17.64 92.8147 17.22 92.5507 17.004C92.4547 16.908 92.3827 16.86 92.3347 16.86C92.3107 16.836 92.2747 16.824 92.2267 16.824C92.2027 16.824 92.1787 16.824 92.1547 16.824C92.1307 16.8 92.1067 16.8 92.0827 16.824C92.0587 16.848 92.0347 16.908 92.0107 17.004C92.0107 17.076 91.9867 17.136 91.9387 17.184C91.9147 17.232 91.8427 17.268 91.7227 17.292C91.6267 17.292 91.5547 17.28 91.5067 17.256C91.3627 17.232 91.2307 17.16 91.1107 17.04H90.8947C90.8707 17.016 90.8467 16.992 90.8227 16.968C90.7987 16.92 90.7627 16.884 90.7147 16.86C90.6427 16.86 90.5707 16.896 90.4987 16.968C90.3307 17.112 90.2107 17.316 90.1387 17.58C90.0667 17.82 90.0067 18.108 89.9587 18.444C89.9347 18.516 89.9227 18.612 89.9227 18.732C89.9227 18.804 89.9107 18.888 89.8867 18.984C89.8867 19.056 89.8867 19.14 89.8867 19.236C89.8627 19.428 89.8507 19.656 89.8507 19.92C89.8507 20.184 89.8507 20.448 89.8507 20.712C89.8507 20.88 89.8507 21.048 89.8507 21.216C89.8747 21.36 89.8867 21.516 89.8867 21.684C89.8867 21.852 89.8867 22.02 89.8867 22.188C89.8867 22.356 89.8987 22.5 89.9227 22.62C89.9707 23.052 90.0187 23.388 90.0667 23.628C90.1387 23.868 90.2947 24.108 90.5347 24.348ZM121.228 16.716C121.228 16.86 121.228 17.004 121.228 17.148C121.252 17.292 121.264 17.448 121.264 17.616C121.264 17.712 121.264 17.808 121.264 17.904C121.264 18 121.24 18.096 121.192 18.192C121.12 18.384 121 18.54 120.832 18.66C120.832 18.66 120.82 18.66 120.796 18.66C120.796 18.66 120.796 18.672 120.796 18.696C120.772 18.696 120.748 18.708 120.724 18.732C120.724 18.732 120.712 18.732 120.688 18.732C120.568 18.9 120.46 19.068 120.364 19.236C120.268 19.404 120.16 19.56 120.04 19.704C120.016 19.728 119.992 19.764 119.968 19.812C119.944 19.836 119.908 19.86 119.86 19.884C119.836 19.884 119.812 19.896 119.788 19.92C119.788 19.92 119.776 19.932 119.752 19.956C119.752 19.956 119.74 19.956 119.716 19.956C119.692 19.98 119.656 20.148 119.608 20.46C119.56 20.772 119.5 20.976 119.428 21.072C119.404 21.096 119.356 21.084 119.284 21.036C119.212 20.892 119.176 20.736 119.176 20.568C119.152 20.448 119.128 20.316 119.104 20.172C119.104 20.028 119.08 19.884 119.032 19.74L118.816 19.524C118.768 19.476 118.684 19.392 118.564 19.272C118.468 19.152 118.36 19.044 118.24 18.948L118.204 18.912C118.18 18.912 118.168 18.924 118.168 18.948C118.168 18.948 118.156 18.948 118.132 18.948C118.084 18.996 118.024 19.068 117.952 19.164C117.904 19.236 117.832 19.284 117.736 19.308C117.616 19.332 117.52 19.284 117.448 19.164C117.424 19.188 117.364 19.2 117.268 19.2C117.172 19.2 117.1 19.188 117.052 19.164L116.872 19.596C116.8 19.764 116.716 19.908 116.62 20.028C116.548 20.148 116.452 20.268 116.332 20.388C116.26 20.46 116.188 20.544 116.116 20.64C116.044 20.712 115.972 20.772 115.9 20.82C115.804 20.916 115.756 20.94 115.756 20.892C115.708 20.604 115.684 20.376 115.684 20.208C115.708 20.016 115.684 19.764 115.612 19.452C115.564 19.476 115.516 19.512 115.468 19.56C115.372 19.608 115.324 19.644 115.324 19.668C115.276 19.836 115.24 20.016 115.216 20.208C115.216 20.4 115.192 20.58 115.144 20.748C115.12 20.772 115.084 20.772 115.036 20.748C115.012 20.724 114.988 20.7 114.964 20.676C114.94 20.484 114.916 20.304 114.892 20.136C114.892 19.968 114.868 19.8 114.82 19.632C114.82 19.584 114.796 19.56 114.748 19.56C114.724 19.536 114.7 19.512 114.676 19.488C114.676 19.488 114.664 19.476 114.64 19.452C114.616 19.428 114.58 19.404 114.532 19.38C114.532 19.5 114.508 19.584 114.46 19.632C114.46 19.632 114.4 19.572 114.28 19.452H114.208C114.184 19.452 114.16 19.44 114.136 19.416C114.136 19.368 114.124 19.332 114.1 19.308C114.076 19.332 114.052 19.356 114.028 19.38C114.004 19.38 113.98 19.392 113.956 19.416C113.908 19.488 113.86 19.56 113.812 19.632C113.764 19.704 113.716 19.776 113.668 19.848C113.644 19.872 113.632 19.908 113.632 19.956C113.632 19.98 113.62 20.016 113.596 20.064C113.524 20.28 113.476 20.508 113.452 20.748C113.452 20.988 113.452 21.228 113.452 21.468V28.596C113.452 28.716 113.452 28.848 113.452 28.992C113.476 29.112 113.464 29.232 113.416 29.352C113.416 29.376 113.404 29.4 113.38 29.424C113.38 29.424 113.38 29.436 113.38 29.46C113.38 29.46 113.356 29.484 113.308 29.532C113.212 29.676 113.128 29.772 113.056 29.82C113.104 29.772 113.08 29.796 112.984 29.892C112.888 29.964 112.828 30.024 112.804 30.072C112.804 30.096 112.792 30.12 112.768 30.144C112.744 30.192 112.72 30.252 112.696 30.324C112.696 30.396 112.66 30.42 112.588 30.396C112.588 30.42 112.576 30.432 112.552 30.432C112.504 30.528 112.48 30.588 112.48 30.612C112.432 30.66 112.384 30.72 112.336 30.792C112.312 30.864 112.276 30.936 112.228 31.008C112.036 31.344 111.904 31.56 111.832 31.656C111.784 31.776 111.652 31.968 111.436 32.232C111.412 32.256 111.376 32.28 111.328 32.304C111.304 32.352 111.268 32.4 111.22 32.448C111.196 32.472 111.148 32.568 111.076 32.736C111.004 32.904 110.944 33 110.896 33.024C110.872 33.048 110.824 33 110.752 32.88C110.728 32.808 110.716 32.724 110.716 32.628C110.716 32.556 110.692 32.484 110.644 32.412L110.428 32.16C110.332 32.064 110.248 31.944 110.176 31.8C110.032 31.608 109.912 31.404 109.816 31.188C109.72 30.972 109.612 30.756 109.492 30.54C109.492 30.516 109.48 30.504 109.456 30.504C109.456 30.504 109.456 30.492 109.456 30.468C109.384 30.396 109.348 30.384 109.348 30.432C109.3 30.624 109.276 30.828 109.276 31.044C109.3 31.26 109.276 31.464 109.204 31.656C109.18 31.728 109.156 31.692 109.132 31.548C109.108 31.404 109.084 31.296 109.06 31.224L108.772 30.396V30.36C108.7 30.432 108.652 30.468 108.628 30.468C108.58 30.468 108.532 30.444 108.484 30.396C108.412 30.564 108.34 30.732 108.268 30.9C108.22 31.068 108.148 31.248 108.052 31.44C108.028 31.464 108.004 31.5 107.98 31.548C107.98 31.62 107.956 31.68 107.908 31.728C107.884 31.752 107.86 31.8 107.836 31.872C107.812 31.968 107.788 31.992 107.764 31.944C107.692 31.56 107.68 31.308 107.728 31.188C107.776 31.092 107.704 30.888 107.512 30.576C107.44 30.624 107.38 30.696 107.332 30.792C107.308 30.96 107.284 31.14 107.26 31.332C107.26 31.524 107.236 31.716 107.188 31.908C107.188 31.932 107.152 32.004 107.08 32.124C107.032 32.268 106.972 32.352 106.9 32.376C106.78 32.4 106.684 32.316 106.612 32.124C106.54 31.932 106.492 31.812 106.468 31.764C106.372 31.548 106.3 31.32 106.252 31.08C106.228 30.864 106.168 30.66 106.072 30.468C106.024 30.42 105.976 30.372 105.928 30.324C105.88 30.276 105.832 30.228 105.784 30.18C105.712 30.132 105.676 30.084 105.676 30.036C105.628 30.012 105.556 30 105.46 30C105.436 30 105.412 30 105.388 30C105.388 29.976 105.364 29.964 105.316 29.964C105.124 29.892 104.968 29.772 104.848 29.604C104.8 29.556 104.752 29.46 104.704 29.316C104.656 29.148 104.632 28.956 104.632 28.74C104.656 28.524 104.668 28.332 104.668 28.164V15.204C104.668 14.844 104.668 14.448 104.668 14.016C104.668 13.56 104.656 13.104 104.632 12.648C104.632 12.528 104.632 12.408 104.632 12.288C104.656 12.144 104.68 12.024 104.704 11.928C104.776 11.712 104.908 11.544 105.1 11.424C105.22 11.376 105.316 11.34 105.388 11.316C105.46 11.292 105.568 11.28 105.712 11.28C105.88 11.256 106.048 11.256 106.216 11.28C106.384 11.28 106.54 11.28 106.684 11.28H110.86C111.052 11.28 111.256 11.268 111.472 11.244C111.688 11.22 111.892 11.232 112.084 11.28C112.156 11.28 112.216 11.292 112.264 11.316C112.504 11.388 112.66 11.52 112.732 11.712C112.852 11.88 112.912 12.06 112.912 12.252V13.512L113.128 13.296C113.176 13.272 113.212 13.248 113.236 13.224C113.26 13.2 113.272 13.188 113.272 13.188C113.32 13.14 113.44 13.044 113.632 12.9C113.848 12.756 114.004 12.66 114.1 12.612C114.244 12.492 114.388 12.396 114.532 12.324C114.7 12.228 114.856 12.144 115 12.072C115.192 11.952 115.396 11.856 115.612 11.784C115.852 11.712 116.092 11.652 116.332 11.604C117.028 11.388 117.76 11.28 118.528 11.28H119.14C119.26 11.28 119.392 11.28 119.536 11.28C119.68 11.256 119.824 11.244 119.968 11.244C120.136 11.244 120.292 11.256 120.436 11.28C120.604 11.304 120.736 11.364 120.832 11.46C120.976 11.556 121.084 11.688 121.156 11.856C121.204 12 121.228 12.12 121.228 12.216V12.396C121.252 12.564 121.252 12.732 121.228 12.9C121.228 13.044 121.228 13.188 121.228 13.332V16.716ZM143.893 28.92C143.893 28.992 143.881 29.064 143.857 29.136C143.857 29.208 143.845 29.28 143.821 29.352C143.773 29.448 143.737 29.508 143.713 29.532C143.617 29.676 143.533 29.772 143.461 29.82C143.413 29.844 143.341 29.904 143.245 30C143.197 30.048 143.161 30.096 143.137 30.144C143.041 30.24 142.957 30.348 142.885 30.468C142.813 30.588 142.717 30.696 142.597 30.792L142.489 30.9C142.393 31.188 142.333 31.5 142.309 31.836C142.309 32.196 142.225 32.508 142.057 32.772C141.985 32.916 141.889 32.88 141.769 32.664C141.721 32.544 141.673 32.376 141.625 32.16C141.577 31.968 141.529 31.824 141.481 31.728C141.457 31.632 141.445 31.524 141.445 31.404C141.445 31.308 141.397 31.236 141.301 31.188C141.277 31.164 141.241 31.152 141.193 31.152C141.121 31.152 141.037 31.128 140.941 31.08C140.941 31.104 140.977 31.176 141.049 31.296C141.121 31.416 141.169 31.512 141.193 31.584C141.241 31.68 141.181 31.692 141.013 31.62C140.941 31.572 140.881 31.464 140.833 31.296C140.809 31.128 140.797 31.02 140.797 30.972C140.701 30.876 140.629 30.792 140.581 30.72C140.557 30.672 140.521 30.612 140.473 30.54C140.425 30.492 140.377 30.432 140.329 30.36C140.281 30.624 140.257 30.888 140.257 31.152C140.257 31.416 140.233 31.68 140.185 31.944C140.185 31.968 140.137 31.98 140.041 31.98C139.945 32.004 139.849 32.016 139.753 32.016C139.657 32.016 139.561 32.004 139.465 31.98C139.153 31.908 138.829 31.812 138.493 31.692C138.181 31.596 137.893 31.44 137.629 31.224C137.269 30.984 136.921 30.708 136.585 30.396L136.369 30.072C136.345 30.048 136.321 30.024 136.297 30C136.273 29.976 136.237 29.916 136.189 29.82V29.784C136.021 29.664 135.913 29.544 135.865 29.424C135.841 29.304 135.817 29.184 135.793 29.064V28.2C135.769 28.224 135.745 28.248 135.721 28.272C135.697 28.296 135.661 28.332 135.613 28.38C135.613 28.404 135.601 28.428 135.577 28.452C135.553 28.476 135.541 28.488 135.541 28.488C135.517 28.512 135.493 28.536 135.469 28.56C135.445 28.56 135.421 28.572 135.397 28.596C135.349 28.668 135.289 28.74 135.217 28.812C135.145 28.86 135.073 28.908 135.001 28.956L134.893 29.352C134.893 29.376 134.881 29.4 134.857 29.424C134.857 29.424 134.857 29.448 134.857 29.496V29.532L134.641 30.108C134.569 30.276 134.497 30.444 134.425 30.612C134.353 30.78 134.269 30.924 134.173 31.044C134.101 31.164 134.017 31.236 133.921 31.26C133.897 31.308 133.861 31.392 133.813 31.512C133.789 31.632 133.717 31.68 133.597 31.656C133.501 31.608 133.417 31.524 133.345 31.404C133.297 31.284 133.213 31.224 133.093 31.224C133.069 31.248 133.021 31.284 132.949 31.332C132.901 31.38 132.865 31.416 132.841 31.44C132.817 31.464 132.757 31.536 132.661 31.656C132.565 31.776 132.481 31.884 132.409 31.98C132.385 32.004 132.361 32.016 132.337 32.016C132.313 32.04 132.277 32.064 132.229 32.088C132.205 32.4 132.241 32.784 132.337 33.24C132.433 33.72 132.481 34.128 132.481 34.464C132.505 34.824 132.361 34.98 132.049 34.932C131.737 34.86 131.581 34.656 131.581 34.32C131.605 33.984 131.665 33.6 131.761 33.168C131.881 32.736 131.929 32.364 131.905 32.052L131.797 31.944C131.797 31.944 131.785 31.944 131.761 31.944C131.761 31.944 131.761 31.932 131.761 31.908C131.737 31.908 131.689 31.872 131.617 31.8C131.569 31.752 131.533 31.716 131.509 31.692L130.753 30.72C130.729 30.696 130.717 30.672 130.717 30.648C130.717 30.648 130.705 30.636 130.681 30.612C130.609 30.732 130.585 30.828 130.609 30.9C130.633 30.972 130.585 30.792 130.465 30.36H130.069C129.949 30.36 129.865 30.348 129.817 30.324C128.617 30.252 127.561 29.988 126.649 29.532C126.553 29.484 126.457 29.436 126.361 29.388C126.289 29.34 126.217 29.28 126.145 29.208C125.185 28.584 124.405 27.696 123.805 26.544C123.229 25.368 122.905 23.868 122.833 22.044C122.809 21.684 122.797 21.36 122.797 21.072C122.797 20.784 122.797 20.484 122.797 20.172V19.956C122.797 19.884 122.809 19.824 122.833 19.776V19.2C122.881 17.64 123.157 16.308 123.661 15.204C124.165 14.076 124.825 13.176 125.641 12.504C125.761 12.384 125.893 12.288 126.037 12.216C127.261 11.352 128.737 10.92 130.465 10.92C130.609 10.92 130.753 10.92 130.897 10.92C131.065 10.92 131.209 10.932 131.329 10.956C131.521 10.956 131.701 10.968 131.869 10.992C132.061 11.016 132.241 11.052 132.409 11.1C132.457 11.124 132.517 11.148 132.589 11.172C132.661 11.172 132.733 11.196 132.805 11.244C133.405 11.412 133.957 11.664 134.461 12L134.677 12.144C134.773 12.192 134.845 12.252 134.893 12.324C134.965 12.372 135.037 12.42 135.109 12.468C135.109 12.492 135.109 12.504 135.109 12.504C135.133 12.504 135.145 12.504 135.145 12.504C135.145 12.504 135.145 12.516 135.145 12.54C135.145 12.54 135.157 12.54 135.181 12.54C135.181 12.78 135.181 12.888 135.181 12.864C135.205 12.84 135.217 12.768 135.217 12.648C135.241 12.528 135.253 12.468 135.253 12.468V6.672C135.229 6.432 135.205 6.18 135.181 5.916C135.181 5.652 135.205 5.412 135.253 5.196C135.325 4.932 135.457 4.752 135.649 4.656C135.793 4.512 135.985 4.44 136.225 4.44H141.049C141.241 4.44 141.517 4.44 141.877 4.44C142.237 4.416 142.573 4.416 142.885 4.44C143.101 4.44 143.257 4.488 143.353 4.584C143.449 4.632 143.509 4.668 143.533 4.692C143.749 4.86 143.857 5.112 143.857 5.448V27.264C143.857 27.504 143.869 27.78 143.893 28.092C143.917 28.38 143.917 28.656 143.893 28.92ZM134.353 23.736C134.569 23.616 134.737 23.472 134.857 23.304C134.977 23.112 135.073 22.896 135.145 22.656C135.217 22.32 135.253 21.984 135.253 21.648C135.253 21.6 135.253 21.552 135.253 21.504C135.277 21.432 135.289 21.372 135.289 21.324V20.568C135.313 20.376 135.313 20.172 135.289 19.956C135.289 19.716 135.277 19.404 135.253 19.02C135.229 18.972 135.217 18.912 135.217 18.84L135.109 18.372C135.085 18.324 135.061 18.276 135.037 18.228C135.013 18.156 134.989 18.096 134.965 18.048L134.785 17.832L134.713 17.76C134.665 17.736 134.617 17.7 134.569 17.652C134.497 17.628 134.401 17.616 134.281 17.616H134.065C133.897 17.616 133.717 17.628 133.525 17.652C133.357 17.652 133.177 17.652 132.985 17.652C132.913 17.652 132.829 17.652 132.733 17.652C132.637 17.628 132.541 17.628 132.445 17.652C132.253 17.772 132.109 17.928 132.013 18.12C131.989 18.12 131.977 18.132 131.977 18.156C131.977 18.156 131.953 18.204 131.905 18.3C131.881 18.372 131.857 18.444 131.833 18.516C131.809 18.588 131.785 18.66 131.761 18.732C131.761 18.78 131.749 18.84 131.725 18.912C131.725 18.96 131.725 19.008 131.725 19.056C131.701 19.152 131.677 19.248 131.653 19.344C131.653 19.44 131.653 19.536 131.653 19.632C131.653 19.704 131.641 19.776 131.617 19.848C131.617 19.92 131.617 19.992 131.617 20.064C131.593 20.352 131.581 20.652 131.581 20.964C131.605 21.276 131.629 21.576 131.653 21.864C131.653 21.912 131.653 21.96 131.653 22.008C131.677 22.056 131.689 22.104 131.689 22.152L131.761 22.44C131.809 22.656 131.869 22.872 131.941 23.088C132.037 23.28 132.169 23.448 132.337 23.592L132.517 23.7C132.757 23.844 132.997 23.916 133.237 23.916C133.477 23.916 133.657 23.904 133.777 23.88C133.897 23.88 133.993 23.868 134.065 23.844C134.161 23.796 134.257 23.76 134.353 23.736Z" fill="#F77600"/>
</svg>
