<svg width="32" height="32" viewBox="0 0 32 32" fill="none" xmlns="http://www.w3.org/2000/svg">
<path d="M16 22.6667C16.3778 22.6667 16.6947 22.5387 16.9507 22.2827C17.2067 22.0267 17.3342 21.7103 17.3334 21.3334C17.3334 20.9556 17.2054 20.6387 16.9494 20.3827C16.6934 20.1267 16.3769 19.9992 16 20.0001C15.6222 20.0001 15.3054 20.1281 15.0494 20.3841C14.7934 20.6401 14.6658 20.9565 14.6667 21.3334C14.6667 21.7112 14.7947 22.0281 15.0507 22.2841C15.3067 22.5401 15.6231 22.6676 16 22.6667ZM14.6667 17.3334H17.3334V9.33341H14.6667V17.3334ZM16 29.3334C14.1556 29.3334 12.4222 28.9832 10.8 28.2827C9.1778 27.5823 7.76669 26.6325 6.56669 25.4334C5.36669 24.2334 4.41691 22.8223 3.71735 21.2001C3.0178 19.5779 2.66758 17.8445 2.66669 16.0001C2.66669 14.1556 3.01691 12.4223 3.71735 10.8001C4.4178 9.17786 5.36758 7.76675 6.56669 6.56675C7.76669 5.36675 9.1778 4.41697 10.8 3.71741C12.4222 3.01786 14.1556 2.66764 16 2.66675C17.8445 2.66675 19.5778 3.01697 21.2 3.71741C22.8222 4.41786 24.2334 5.36764 25.4334 6.56675C26.6334 7.76675 27.5836 9.17786 28.284 10.8001C28.9845 12.4223 29.3342 14.1556 29.3334 16.0001C29.3334 17.8445 28.9831 19.5779 28.2827 21.2001C27.5822 22.8223 26.6325 24.2334 25.4334 25.4334C24.2334 26.6334 22.8222 27.5836 21.2 28.2841C19.5778 28.9845 17.8445 29.3343 16 29.3334ZM16 26.6667C18.9778 26.6667 21.5 25.6334 23.5667 23.5667C25.6334 21.5001 26.6667 18.9779 26.6667 16.0001C26.6667 13.0223 25.6334 10.5001 23.5667 8.43341C21.5 6.36675 18.9778 5.33341 16 5.33341C13.0222 5.33341 10.5 6.36675 8.43335 8.43341C6.36669 10.5001 5.33335 13.0223 5.33335 16.0001C5.33335 18.9779 6.36669 21.5001 8.43335 23.5667C10.5 25.6334 13.0222 26.6667 16 26.6667Z" fill="white"/>
</svg>
