<svg width="32" height="32" viewBox="0 0 32 32" fill="none" xmlns="http://www.w3.org/2000/svg">
<g clip-path="url(#clip0_97_409)">
<path d="M16 1.77783C13.1871 1.77783 10.4374 2.61195 8.09856 4.17471C5.75972 5.73747 3.93683 7.95867 2.86038 10.5574C1.78393 13.1562 1.50229 16.0158 2.05105 18.7747C2.59982 21.5335 3.95436 24.0677 5.94337 26.0567C7.93238 28.0457 10.4665 29.4002 13.2254 29.949C15.9842 30.4978 18.8438 30.2161 21.4426 29.1397C24.0414 28.0632 26.2626 26.2403 27.8253 23.9015C29.3881 21.5627 30.2222 18.8129 30.2222 16.0001C30.2222 12.2281 28.7238 8.61061 26.0566 5.94342C23.3894 3.27624 19.772 1.77783 16 1.77783ZM16 28.4445C13.5387 28.4445 11.1327 27.7146 9.08624 26.3472C7.03976 24.9798 5.44472 23.0363 4.50283 20.7623C3.56094 18.4884 3.3145 15.9862 3.79467 13.5723C4.27484 11.1583 5.46006 8.94089 7.20045 7.2005C8.94083 5.46012 11.1582 4.2749 13.5722 3.79473C15.9862 3.31455 18.4884 3.561 20.7623 4.50289C23.0362 5.44478 24.9798 7.03981 26.3472 9.08629C27.7146 11.1328 28.4444 13.5388 28.4444 16.0001C28.4444 19.3005 27.1333 22.4658 24.7995 24.7996C22.4658 27.1334 19.3005 28.4445 16 28.4445Z" fill="black"/>
<path d="M24.8889 10.7556C24.7224 10.59 24.4971 10.4971 24.2622 10.4971C24.0274 10.4971 23.8021 10.59 23.6356 10.7556L13.7689 20.5778L8.43557 15.2444C8.2729 15.0688 8.04713 14.965 7.80791 14.9558C7.5687 14.9467 7.33564 15.0329 7.16001 15.1956C6.98438 15.3582 6.88056 15.584 6.87139 15.8232C6.86222 16.0624 6.94846 16.2955 7.11112 16.4711L13.7689 23.1111L24.8889 12.0178C24.9722 11.9351 25.0383 11.8368 25.0835 11.7285C25.1286 11.6202 25.1518 11.504 25.1518 11.3867C25.1518 11.2693 25.1286 11.1531 25.0835 11.0448C25.0383 10.9365 24.9722 10.8382 24.8889 10.7556Z" fill="black"/>
</g>
<defs>
<clipPath id="clip0_97_409">
<rect width="32" height="32" fill="white"/>
</clipPath>
</defs>
</svg>
