<svg width="32" height="32" viewBox="0 0 32 32" fill="none" xmlns="http://www.w3.org/2000/svg">
<path d="M14.6667 12.0001H17.3334V9.33341H14.6667M16 26.6667C10.12 26.6667 5.33335 21.8801 5.33335 16.0001C5.33335 10.1201 10.12 5.33341 16 5.33341C21.88 5.33341 26.6667 10.1201 26.6667 16.0001C26.6667 21.8801 21.88 26.6667 16 26.6667ZM16 2.66675C14.2491 2.66675 12.5152 3.01162 10.8976 3.68169C9.2799 4.35175 7.81004 5.33388 6.57193 6.57199C4.07144 9.07248 2.66669 12.4639 2.66669 16.0001C2.66669 19.5363 4.07144 22.9277 6.57193 25.4282C7.81004 26.6663 9.2799 27.6484 10.8976 28.3185C12.5152 28.9885 14.2491 29.3334 16 29.3334C19.5362 29.3334 22.9276 27.9287 25.4281 25.4282C27.9286 22.9277 29.3334 19.5363 29.3334 16.0001C29.3334 14.2491 28.9885 12.5153 28.3184 10.8976C27.6484 9.27996 26.6662 7.81011 25.4281 6.57199C24.19 5.33388 22.7201 4.35175 21.1025 3.68169C19.4848 3.01162 17.751 2.66675 16 2.66675ZM14.6667 22.6667H17.3334V14.6667H14.6667V22.6667Z" fill="black"/>
</svg>
